solid inlet2
  facet normal -8.660254e-01 5.000000e-01 1.745739e-15
    outer loop
      vertex   -2.423522e+00 1.802337e+00 3.524969e+00
      vertex   -2.348524e+00 1.932238e+00 3.529902e+00
      vertex   -2.423076e+00 1.803109e+00 3.500000e+00
    endloop
  endfacet
  facet normal -8.660254e-01 5.000000e-01 -4.641078e-15
    outer loop
      vertex   -2.423076e+00 1.803109e+00 3.500000e+00
      vertex   -2.348524e+00 1.932238e+00 3.529902e+00
      vertex   -2.348076e+00 1.933013e+00 3.500000e+00
    endloop
  endfacet
  facet normal -8.660254e-01 5.000000e-01 4.641078e-15
    outer loop
      vertex   -2.423076e+00 1.803109e+00 3.500000e+00
      vertex   -2.348076e+00 1.933013e+00 3.500000e+00
      vertex   -2.348524e+00 1.932238e+00 3.470098e+00
    endloop
  endfacet
  facet normal -8.660254e-01 5.000000e-01 1.862479e-15
    outer loop
      vertex   -2.348524e+00 1.932238e+00 3.529902e+00
      vertex   -2.423522e+00 1.802337e+00 3.524969e+00
      vertex   -2.349864e+00 1.929915e+00 3.559697e+00
    endloop
  endfacet
  facet normal -8.660254e-01 5.000000e-01 6.010056e-15
    outer loop
      vertex   -2.349864e+00 1.929915e+00 3.559697e+00
      vertex   -2.423522e+00 1.802337e+00 3.524969e+00
      vertex   -2.424857e+00 1.800024e+00 3.549810e+00
    endloop
  endfacet
  facet normal -8.660254e-01 5.000000e-01 -1.113028e-15
    outer loop
      vertex   -2.349864e+00 1.929915e+00 3.559697e+00
      vertex   -2.424857e+00 1.800024e+00 3.549810e+00
      vertex   -2.352094e+00 1.926054e+00 3.589278e+00
    endloop
  endfacet
  facet normal -8.660254e-01 5.000000e-01 -1.247916e-14
    outer loop
      vertex   -2.352094e+00 1.926054e+00 3.589278e+00
      vertex   -2.424857e+00 1.800024e+00 3.549810e+00
      vertex   -2.427076e+00 1.796182e+00 3.574398e+00
    endloop
  endfacet
  facet normal -8.660254e-01 5.000000e-01 1.079183e-14
    outer loop
      vertex   -2.352094e+00 1.926054e+00 3.589278e+00
      vertex   -2.427076e+00 1.796182e+00 3.574398e+00
      vertex   -2.355204e+00 1.920668e+00 3.618540e+00
    endloop
  endfacet
  facet normal -8.660254e-01 5.000000e-01 6.009585e-15
    outer loop
      vertex   -2.355204e+00 1.920668e+00 3.618540e+00
      vertex   -2.427076e+00 1.796182e+00 3.574398e+00
      vertex   -2.430165e+00 1.790831e+00 3.598606e+00
    endloop
  endfacet
  facet normal -8.660254e-01 5.000000e-01 2.467384e-15
    outer loop
      vertex   -2.355204e+00 1.920668e+00 3.618540e+00
      vertex   -2.430165e+00 1.790831e+00 3.598606e+00
      vertex   -2.359183e+00 1.913775e+00 3.647378e+00
    endloop
  endfacet
  facet normal -8.660254e-01 5.000000e-01 5.550795e-15
    outer loop
      vertex   -2.359183e+00 1.913775e+00 3.647378e+00
      vertex   -2.430165e+00 1.790831e+00 3.598606e+00
      vertex   -2.434110e+00 1.783998e+00 3.622312e+00
    endloop
  endfacet
  facet normal -8.660254e-01 5.000000e-01 -8.461463e-15
    outer loop
      vertex   -2.359183e+00 1.913775e+00 3.647378e+00
      vertex   -2.434110e+00 1.783998e+00 3.622312e+00
      vertex   -2.364017e+00 1.905402e+00 3.675687e+00
    endloop
  endfacet
  facet normal -8.660254e-01 5.000000e-01 -8.024016e-15
    outer loop
      vertex   -2.364017e+00 1.905402e+00 3.675687e+00
      vertex   -2.434110e+00 1.783998e+00 3.622312e+00
      vertex   -2.369690e+00 1.895577e+00 3.703368e+00
    endloop
  endfacet
  facet normal -8.660254e-01 5.000000e-01 -2.776308e-15
    outer loop
      vertex   -2.369690e+00 1.895577e+00 3.703368e+00
      vertex   -2.434110e+00 1.783998e+00 3.622312e+00
      vertex   -2.438891e+00 1.775718e+00 3.645395e+00
    endloop
  endfacet
  facet normal -8.660254e-01 5.000000e-01 2.418580e-15
    outer loop
      vertex   -2.369690e+00 1.895577e+00 3.703368e+00
      vertex   -2.438891e+00 1.775718e+00 3.645395e+00
      vertex   -2.376180e+00 1.884336e+00 3.730321e+00
    endloop
  endfacet
  facet normal -8.660254e-01 5.000000e-01 -9.478272e-15
    outer loop
      vertex   -2.376180e+00 1.884336e+00 3.730321e+00
      vertex   -2.438891e+00 1.775718e+00 3.645395e+00
      vertex   -2.444482e+00 1.766032e+00 3.667737e+00
    endloop
  endfacet
  facet normal -8.660254e-01 5.000000e-01 6.000448e-15
    outer loop
      vertex   -2.376180e+00 1.884336e+00 3.730321e+00
      vertex   -2.444482e+00 1.766032e+00 3.667737e+00
      vertex   -2.383464e+00 1.871719e+00 3.756450e+00
    endloop
  endfacet
  facet normal -8.660254e-01 5.000000e-01 4.621975e-15
    outer loop
      vertex   -2.383464e+00 1.871719e+00 3.756450e+00
      vertex   -2.444482e+00 1.766032e+00 3.667737e+00
      vertex   -2.450857e+00 1.754991e+00 3.689224e+00
    endloop
  endfacet
  facet normal -8.660254e-01 5.000000e-01 8.493271e-15
    outer loop
      vertex   -2.383464e+00 1.871719e+00 3.756450e+00
      vertex   -2.450857e+00 1.754991e+00 3.689224e+00
      vertex   -2.391517e+00 1.857772e+00 3.781660e+00
    endloop
  endfacet
  facet normal -8.660254e-01 5.000000e-01 -3.235721e-15
    outer loop
      vertex   -2.391517e+00 1.857772e+00 3.781660e+00
      vertex   -2.450857e+00 1.754991e+00 3.689224e+00
      vertex   -2.457981e+00 1.742651e+00 3.709747e+00
    endloop
  endfacet
  facet normal -8.660254e-01 5.000000e-01 -9.676720e-16
    outer loop
      vertex   -2.391517e+00 1.857772e+00 3.781660e+00
      vertex   -2.457981e+00 1.742651e+00 3.709747e+00
      vertex   -2.400308e+00 1.842544e+00 3.805862e+00
    endloop
  endfacet
  facet normal -8.660254e-01 5.000000e-01 7.862500e-15
    outer loop
      vertex   -2.400308e+00 1.842544e+00 3.805862e+00
      vertex   -2.457981e+00 1.742651e+00 3.709747e+00
      vertex   -2.465820e+00 1.729074e+00 3.729201e+00
    endloop
  endfacet
  facet normal -8.660254e-01 5.000000e-01 -2.176083e-15
    outer loop
      vertex   -2.400308e+00 1.842544e+00 3.805862e+00
      vertex   -2.465820e+00 1.729074e+00 3.729201e+00
      vertex   -2.409808e+00 1.826090e+00 3.828969e+00
    endloop
  endfacet
  facet normal -8.660254e-01 5.000000e-01 3.383090e-15
    outer loop
      vertex   -2.409808e+00 1.826090e+00 3.828969e+00
      vertex   -2.465820e+00 1.729074e+00 3.729201e+00
      vertex   -2.419982e+00 1.808468e+00 3.850899e+00
    endloop
  endfacet
  facet normal -8.660254e-01 5.000000e-01 9.024670e-15
    outer loop
      vertex   -2.419982e+00 1.808468e+00 3.850899e+00
      vertex   -2.465820e+00 1.729074e+00 3.729201e+00
      vertex   -2.474333e+00 1.714330e+00 3.747487e+00
    endloop
  endfacet
  facet normal -8.660254e-01 5.000000e-01 -9.238034e-15
    outer loop
      vertex   -2.419982e+00 1.808468e+00 3.850899e+00
      vertex   -2.474333e+00 1.714330e+00 3.747487e+00
      vertex   -2.430794e+00 1.789742e+00 3.871572e+00
    endloop
  endfacet
  facet normal -8.660254e-01 5.000000e-01 -8.323269e-15
    outer loop
      vertex   -2.430794e+00 1.789742e+00 3.871572e+00
      vertex   -2.474333e+00 1.714330e+00 3.747487e+00
      vertex   -2.483476e+00 1.698494e+00 3.764512e+00
    endloop
  endfacet
  facet normal -8.660254e-01 5.000000e-01 4.209794e-15
    outer loop
      vertex   -2.430794e+00 1.789742e+00 3.871572e+00
      vertex   -2.483476e+00 1.698494e+00 3.764512e+00
      vertex   -2.442204e+00 1.769979e+00 3.890916e+00
    endloop
  endfacet
  facet normal -8.660254e-01 5.000000e-01 4.853208e-15
    outer loop
      vertex   -2.442204e+00 1.769979e+00 3.890916e+00
      vertex   -2.483476e+00 1.698494e+00 3.764512e+00
      vertex   -2.493203e+00 1.681646e+00 3.780189e+00
    endloop
  endfacet
  facet normal -8.660254e-01 5.000000e-01 -2.371360e-15
    outer loop
      vertex   -2.442204e+00 1.769979e+00 3.890916e+00
      vertex   -2.493203e+00 1.681646e+00 3.780189e+00
      vertex   -2.454172e+00 1.749250e+00 3.908860e+00
    endloop
  endfacet
  facet normal -8.660254e-01 5.000000e-01 -5.431113e-15
    outer loop
      vertex   -2.454172e+00 1.749250e+00 3.908860e+00
      vertex   -2.493203e+00 1.681646e+00 3.780189e+00
      vertex   -2.503464e+00 1.663873e+00 3.794439e+00
    endloop
  endfacet
  facet normal -8.660254e-01 5.000000e-01 -4.161253e-15
    outer loop
      vertex   -2.454172e+00 1.749250e+00 3.908860e+00
      vertex   -2.503464e+00 1.663873e+00 3.794439e+00
      vertex   -2.466655e+00 1.727628e+00 3.925340e+00
    endloop
  endfacet
  facet normal -8.660254e-01 5.000000e-01 -8.092703e-16
    outer loop
      vertex   -2.466655e+00 1.727628e+00 3.925340e+00
      vertex   -2.503464e+00 1.663873e+00 3.794439e+00
      vertex   -2.514208e+00 1.645265e+00 3.807188e+00
    endloop
  endfacet
  facet normal -8.660254e-01 5.000000e-01 5.465033e-15
    outer loop
      vertex   -2.466655e+00 1.727628e+00 3.925340e+00
      vertex   -2.514208e+00 1.645265e+00 3.807188e+00
      vertex   -2.479609e+00 1.705191e+00 3.940298e+00
    endloop
  endfacet
  facet normal -8.660254e-01 5.000000e-01 1.620025e-15
    outer loop
      vertex   -2.479609e+00 1.705191e+00 3.940298e+00
      vertex   -2.514208e+00 1.645265e+00 3.807188e+00
      vertex   -2.525379e+00 1.625916e+00 3.818371e+00
    endloop
  endfacet
  facet normal -8.660254e-01 5.000000e-01 -6.282190e-16
    outer loop
      vertex   -2.479609e+00 1.705191e+00 3.940298e+00
      vertex   -2.525379e+00 1.625916e+00 3.818371e+00
      vertex   -2.492987e+00 1.682020e+00 3.953679e+00
    endloop
  endfacet
  facet normal -8.660254e-01 5.000000e-01 -4.304153e-15
    outer loop
      vertex   -2.492987e+00 1.682020e+00 3.953679e+00
      vertex   -2.525379e+00 1.625916e+00 3.818371e+00
      vertex   -2.506741e+00 1.658197e+00 3.965437e+00
    endloop
  endfacet
  facet normal -8.660254e-01 5.000000e-01 -3.699675e-15
    outer loop
      vertex   -2.506741e+00 1.658197e+00 3.965437e+00
      vertex   -2.525379e+00 1.625916e+00 3.818371e+00
      vertex   -2.536920e+00 1.605926e+00 3.827932e+00
    endloop
  endfacet
  facet normal -8.660254e-01 5.000000e-01 1.451571e-16
    outer loop
      vertex   -2.506741e+00 1.658197e+00 3.965437e+00
      vertex   -2.536920e+00 1.605926e+00 3.827932e+00
      vertex   -2.520822e+00 1.633808e+00 3.975528e+00
    endloop
  endfacet
  facet normal -8.660254e-01 5.000000e-01 4.044508e-16
    outer loop
      vertex   -2.520822e+00 1.633808e+00 3.975528e+00
      vertex   -2.536920e+00 1.605926e+00 3.827932e+00
      vertex   -2.548773e+00 1.585396e+00 3.835823e+00
    endloop
  endfacet
  facet normal -8.660254e-01 5.000000e-01 1.887406e-15
    outer loop
      vertex   -2.520822e+00 1.633808e+00 3.975528e+00
      vertex   -2.548773e+00 1.585396e+00 3.835823e+00
      vertex   -2.535180e+00 1.608940e+00 3.983917e+00
    endloop
  endfacet
  facet normal -8.660254e-01 5.000000e-01 1.299952e-15
    outer loop
      vertex   -2.535180e+00 1.608940e+00 3.983917e+00
      vertex   -2.548773e+00 1.585396e+00 3.835823e+00
      vertex   -2.560877e+00 1.564430e+00 3.842001e+00
    endloop
  endfacet
  facet normal -8.660254e-01 5.000000e-01 8.468118e-16
    outer loop
      vertex   -2.535180e+00 1.608940e+00 3.983917e+00
      vertex   -2.560877e+00 1.564430e+00 3.842001e+00
      vertex   -2.549762e+00 1.583682e+00 3.990574e+00
    endloop
  endfacet
  facet normal -8.660254e-01 5.000000e-01 2.124089e-15
    outer loop
      vertex   -2.549762e+00 1.583682e+00 3.990574e+00
      vertex   -2.560877e+00 1.564430e+00 3.842001e+00
      vertex   -2.573171e+00 1.543137e+00 3.846438e+00
    endloop
  endfacet
  facet normal -8.660254e-01 5.000000e-01 -4.981942e-15
    outer loop
      vertex   -2.549762e+00 1.583682e+00 3.990574e+00
      vertex   -2.573171e+00 1.543137e+00 3.846438e+00
      vertex   -2.564518e+00 1.558125e+00 3.995475e+00
    endloop
  endfacet
  facet normal -8.660254e-01 5.000000e-01 -5.914835e-15
    outer loop
      vertex   -2.564518e+00 1.558125e+00 3.995475e+00
      vertex   -2.573171e+00 1.543137e+00 3.846438e+00
      vertex   -2.585592e+00 1.521624e+00 3.849108e+00
    endloop
  endfacet
  facet normal -8.660254e-01 5.000000e-01 2.319957e-15
    outer loop
      vertex   -2.564518e+00 1.558125e+00 3.995475e+00
      vertex   -2.585592e+00 1.521624e+00 3.849108e+00
      vertex   -2.579394e+00 1.532359e+00 3.998602e+00
    endloop
  endfacet
  facet normal -8.660254e-01 5.000000e-01 2.055104e-15
    outer loop
      vertex   -2.579394e+00 1.532359e+00 3.998602e+00
      vertex   -2.585592e+00 1.521624e+00 3.849108e+00
      vertex   -2.594336e+00 1.506478e+00 3.999944e+00
    endloop
  endfacet
  facet normal -8.660254e-01 5.000000e-01 1.839245e-15
    outer loop
      vertex   -2.594336e+00 1.506478e+00 3.999944e+00
      vertex   -2.585592e+00 1.521624e+00 3.849108e+00
      vertex   -2.598076e+00 1.500000e+00 3.850000e+00
    endloop
  endfacet
  facet normal -8.660254e-01 5.000000e-01 6.078049e-16
    outer loop
      vertex   -2.594336e+00 1.506478e+00 3.999944e+00
      vertex   -2.598076e+00 1.500000e+00 3.850000e+00
      vertex   -2.609292e+00 1.480573e+00 3.999497e+00
    endloop
  endfacet
  facet normal -8.660254e-01 5.000000e-01 -7.890839e-16
    outer loop
      vertex   -2.609292e+00 1.480573e+00 3.999497e+00
      vertex   -2.598076e+00 1.500000e+00 3.850000e+00
      vertex   -2.610561e+00 1.478376e+00 3.849108e+00
    endloop
  endfacet
  facet normal -8.660254e-01 5.000000e-01 -5.913200e-16
    outer loop
      vertex   -2.609292e+00 1.480573e+00 3.999497e+00
      vertex   -2.610561e+00 1.478376e+00 3.849108e+00
      vertex   -2.624208e+00 1.454738e+00 3.997261e+00
    endloop
  endfacet
  facet normal -8.660254e-01 5.000000e-01 9.803582e-16
    outer loop
      vertex   -2.624208e+00 1.454738e+00 3.997261e+00
      vertex   -2.610561e+00 1.478376e+00 3.849108e+00
      vertex   -2.622981e+00 1.456863e+00 3.846438e+00
    endloop
  endfacet
  facet normal -8.660254e-01 5.000000e-01 8.423122e-16
    outer loop
      vertex   -2.624208e+00 1.454738e+00 3.997261e+00
      vertex   -2.622981e+00 1.456863e+00 3.846438e+00
      vertex   -2.639031e+00 1.429065e+00 3.993245e+00
    endloop
  endfacet
  facet normal -8.660254e-01 5.000000e-01 1.715714e-15
    outer loop
      vertex   -2.639031e+00 1.429065e+00 3.993245e+00
      vertex   -2.622981e+00 1.456863e+00 3.846438e+00
      vertex   -2.635275e+00 1.435570e+00 3.842001e+00
    endloop
  endfacet
  facet normal -8.660254e-01 5.000000e-01 1.741433e-15
    outer loop
      vertex   -2.639031e+00 1.429065e+00 3.993245e+00
      vertex   -2.635275e+00 1.435570e+00 3.842001e+00
      vertex   -2.653706e+00 1.403646e+00 3.987464e+00
    endloop
  endfacet
  facet normal -8.660254e-01 5.000000e-01 -9.253819e-16
    outer loop
      vertex   -2.653706e+00 1.403646e+00 3.987464e+00
      vertex   -2.635275e+00 1.435570e+00 3.842001e+00
      vertex   -2.647379e+00 1.414604e+00 3.835823e+00
    endloop
  endfacet
  facet normal -8.660254e-01 5.000000e-01 1.063477e-15
    outer loop
      vertex   -2.653706e+00 1.403646e+00 3.987464e+00
      vertex   -2.647379e+00 1.414604e+00 3.835823e+00
      vertex   -2.668183e+00 1.378571e+00 3.979938e+00
    endloop
  endfacet
  facet normal -8.660254e-01 5.000000e-01 -5.511792e-15
    outer loop
      vertex   -2.668183e+00 1.378571e+00 3.979938e+00
      vertex   -2.647379e+00 1.414604e+00 3.835823e+00
      vertex   -2.682409e+00 1.353932e+00 3.970693e+00
    endloop
  endfacet
  facet normal -8.660254e-01 5.000000e-01 3.122481e-15
    outer loop
      vertex   -2.682409e+00 1.353932e+00 3.970693e+00
      vertex   -2.647379e+00 1.414604e+00 3.835823e+00
      vertex   -2.659232e+00 1.394074e+00 3.827932e+00
    endloop
  endfacet
  facet normal -8.660254e-01 5.000000e-01 -4.837879e-17
    outer loop
      vertex   -2.682409e+00 1.353932e+00 3.970693e+00
      vertex   -2.659232e+00 1.394074e+00 3.827932e+00
      vertex   -2.696332e+00 1.329815e+00 3.959764e+00
    endloop
  endfacet
  facet normal -8.660254e-01 5.000000e-01 -5.200730e-16
    outer loop
      vertex   -2.696332e+00 1.329815e+00 3.959764e+00
      vertex   -2.659232e+00 1.394074e+00 3.827932e+00
      vertex   -2.670774e+00 1.374084e+00 3.818371e+00
    endloop
  endfacet
  facet normal -8.660254e-01 5.000000e-01 -2.540656e-15
    outer loop
      vertex   -2.696332e+00 1.329815e+00 3.959764e+00
      vertex   -2.670774e+00 1.374084e+00 3.818371e+00
      vertex   -2.709904e+00 1.306308e+00 3.947189e+00
    endloop
  endfacet
  facet normal -8.660254e-01 5.000000e-01 1.097702e-15
    outer loop
      vertex   -2.709904e+00 1.306308e+00 3.947189e+00
      vertex   -2.670774e+00 1.374084e+00 3.818371e+00
      vertex   -2.681945e+00 1.354735e+00 3.807188e+00
    endloop
  endfacet
  facet normal -8.660254e-01 5.000000e-01 7.186362e-15
    outer loop
      vertex   -2.709904e+00 1.306308e+00 3.947189e+00
      vertex   -2.681945e+00 1.354735e+00 3.807188e+00
      vertex   -2.723076e+00 1.283494e+00 3.933013e+00
    endloop
  endfacet
  facet normal -8.660254e-01 5.000000e-01 -3.236095e-15
    outer loop
      vertex   -2.723076e+00 1.283494e+00 3.933013e+00
      vertex   -2.681945e+00 1.354735e+00 3.807188e+00
      vertex   -2.692688e+00 1.336127e+00 3.794439e+00
    endloop
  endfacet
  facet normal -8.660254e-01 5.000000e-01 -4.112084e-16
    outer loop
      vertex   -2.723076e+00 1.283494e+00 3.933013e+00
      vertex   -2.692688e+00 1.336127e+00 3.794439e+00
      vertex   -2.735800e+00 1.261455e+00 3.917287e+00
    endloop
  endfacet
  facet normal -8.660254e-01 5.000000e-01 -5.667021e-15
    outer loop
      vertex   -2.735800e+00 1.261455e+00 3.917287e+00
      vertex   -2.692688e+00 1.336127e+00 3.794439e+00
      vertex   -2.702950e+00 1.318354e+00 3.780189e+00
    endloop
  endfacet
  facet normal -8.660254e-01 5.000000e-01 -4.157828e-15
    outer loop
      vertex   -2.735800e+00 1.261455e+00 3.917287e+00
      vertex   -2.702950e+00 1.318354e+00 3.780189e+00
      vertex   -2.748032e+00 1.240270e+00 3.900067e+00
    endloop
  endfacet
  facet normal -8.660254e-01 5.000000e-01 -3.867379e-15
    outer loop
      vertex   -2.748032e+00 1.240270e+00 3.900067e+00
      vertex   -2.702950e+00 1.318354e+00 3.780189e+00
      vertex   -2.759726e+00 1.220014e+00 3.881415e+00
    endloop
  endfacet
  facet normal -8.660254e-01 5.000000e-01 1.920058e-14
    outer loop
      vertex   -2.759726e+00 1.220014e+00 3.881415e+00
      vertex   -2.702950e+00 1.318354e+00 3.780189e+00
      vertex   -2.712677e+00 1.301506e+00 3.764512e+00
    endloop
  endfacet
  facet normal -8.660254e-01 5.000000e-01 4.426279e-15
    outer loop
      vertex   -2.759726e+00 1.220014e+00 3.881415e+00
      vertex   -2.712677e+00 1.301506e+00 3.764512e+00
      vertex   -2.770842e+00 1.200761e+00 3.861397e+00
    endloop
  endfacet
  facet normal -8.660254e-01 5.000000e-01 -1.386977e-14
    outer loop
      vertex   -2.770842e+00 1.200761e+00 3.861397e+00
      vertex   -2.712677e+00 1.301506e+00 3.764512e+00
      vertex   -2.721820e+00 1.285670e+00 3.747487e+00
    endloop
  endfacet
  facet normal -8.660254e-01 5.000000e-01 -4.258493e-15
    outer loop
      vertex   -2.770842e+00 1.200761e+00 3.861397e+00
      vertex   -2.721820e+00 1.285670e+00 3.747487e+00
      vertex   -2.781339e+00 1.182579e+00 3.840086e+00
    endloop
  endfacet
  facet normal -8.660254e-01 5.000000e-01 1.409687e-14
    outer loop
      vertex   -2.781339e+00 1.182579e+00 3.840086e+00
      vertex   -2.721820e+00 1.285670e+00 3.747487e+00
      vertex   -2.730332e+00 1.270926e+00 3.729201e+00
    endloop
  endfacet
  facet normal -8.660254e-01 5.000000e-01 7.259128e-15
    outer loop
      vertex   -2.781339e+00 1.182579e+00 3.840086e+00
      vertex   -2.730332e+00 1.270926e+00 3.729201e+00
      vertex   -2.791180e+00 1.165534e+00 3.817558e+00
    endloop
  endfacet
  facet normal -8.660254e-01 5.000000e-01 -5.547181e-15
    outer loop
      vertex   -2.791180e+00 1.165534e+00 3.817558e+00
      vertex   -2.730332e+00 1.270926e+00 3.729201e+00
      vertex   -2.738171e+00 1.257349e+00 3.709747e+00
    endloop
  endfacet
  facet normal -8.660254e-01 5.000000e-01 -6.507285e-15
    outer loop
      vertex   -2.791180e+00 1.165534e+00 3.817558e+00
      vertex   -2.738171e+00 1.257349e+00 3.709747e+00
      vertex   -2.800330e+00 1.149685e+00 3.793893e+00
    endloop
  endfacet
  facet normal -8.660254e-01 5.000000e-01 -6.706880e-15
    outer loop
      vertex   -2.800330e+00 1.149685e+00 3.793893e+00
      vertex   -2.738171e+00 1.257349e+00 3.709747e+00
      vertex   -2.745296e+00 1.245009e+00 3.689224e+00
    endloop
  endfacet
  facet normal -8.660254e-01 5.000000e-01 5.923283e-15
    outer loop
      vertex   -2.800330e+00 1.149685e+00 3.793893e+00
      vertex   -2.745296e+00 1.245009e+00 3.689224e+00
      vertex   -2.808756e+00 1.135091e+00 3.769175e+00
    endloop
  endfacet
  facet normal -8.660254e-01 5.000000e-01 -6.501053e-15
    outer loop
      vertex   -2.808756e+00 1.135091e+00 3.769175e+00
      vertex   -2.745296e+00 1.245009e+00 3.689224e+00
      vertex   -2.816428e+00 1.121803e+00 3.743494e+00
    endloop
  endfacet
  facet normal -8.660254e-01 5.000000e-01 1.018041e-14
    outer loop
      vertex   -2.816428e+00 1.121803e+00 3.743494e+00
      vertex   -2.745296e+00 1.245009e+00 3.689224e+00
      vertex   -2.751670e+00 1.233968e+00 3.667737e+00
    endloop
  endfacet
  facet normal -8.660254e-01 5.000000e-01 1.378545e-14
    outer loop
      vertex   -2.816428e+00 1.121803e+00 3.743494e+00
      vertex   -2.751670e+00 1.233968e+00 3.667737e+00
      vertex   -2.823318e+00 1.109869e+00 3.716942e+00
    endloop
  endfacet
  facet normal -8.660254e-01 5.000000e-01 -5.086074e-15
    outer loop
      vertex   -2.823318e+00 1.109869e+00 3.716942e+00
      vertex   -2.751670e+00 1.233968e+00 3.667737e+00
      vertex   -2.757262e+00 1.224282e+00 3.645395e+00
    endloop
  endfacet
  facet normal -8.660254e-01 5.000000e-01 -1.289594e-14
    outer loop
      vertex   -2.823318e+00 1.109869e+00 3.716942e+00
      vertex   -2.757262e+00 1.224282e+00 3.645395e+00
      vertex   -2.829402e+00 1.099331e+00 3.689613e+00
    endloop
  endfacet
  facet normal -8.660254e-01 5.000000e-01 2.311005e-15
    outer loop
      vertex   -2.829402e+00 1.099331e+00 3.689613e+00
      vertex   -2.757262e+00 1.224282e+00 3.645395e+00
      vertex   -2.762042e+00 1.216002e+00 3.622312e+00
    endloop
  endfacet
  facet normal -8.660254e-01 5.000000e-01 7.259234e-15
    outer loop
      vertex   -2.829402e+00 1.099331e+00 3.689613e+00
      vertex   -2.762042e+00 1.216002e+00 3.622312e+00
      vertex   -2.834658e+00 1.090228e+00 3.661605e+00
    endloop
  endfacet
  facet normal -8.660254e-01 5.000000e-01 -5.084611e-15
    outer loop
      vertex   -2.834658e+00 1.090228e+00 3.661605e+00
      vertex   -2.762042e+00 1.216002e+00 3.622312e+00
      vertex   -2.765987e+00 1.209169e+00 3.598606e+00
    endloop
  endfacet
  facet normal -8.660254e-01 5.000000e-01 3.870774e-16
    outer loop
      vertex   -2.834658e+00 1.090228e+00 3.661605e+00
      vertex   -2.765987e+00 1.209169e+00 3.598606e+00
      vertex   -2.839067e+00 1.082592e+00 3.633018e+00
    endloop
  endfacet
  facet normal -8.660254e-01 5.000000e-01 5.087273e-15
    outer loop
      vertex   -2.839067e+00 1.082592e+00 3.633018e+00
      vertex   -2.765987e+00 1.209169e+00 3.598606e+00
      vertex   -2.769077e+00 1.203818e+00 3.574398e+00
    endloop
  endfacet
  facet normal -8.660254e-01 5.000000e-01 -6.504334e-15
    outer loop
      vertex   -2.839067e+00 1.082592e+00 3.633018e+00
      vertex   -2.769077e+00 1.203818e+00 3.574398e+00
      vertex   -2.842613e+00 1.076450e+00 3.603956e+00
    endloop
  endfacet
  facet normal -8.660254e-01 5.000000e-01 -3.890341e-15
    outer loop
      vertex   -2.842613e+00 1.076450e+00 3.603956e+00
      vertex   -2.769077e+00 1.203818e+00 3.574398e+00
      vertex   -2.845284e+00 1.071824e+00 3.574521e+00
    endloop
  endfacet
  facet normal -8.660254e-01 5.000000e-01 -2.314168e-15
    outer loop
      vertex   -2.845284e+00 1.071824e+00 3.574521e+00
      vertex   -2.769077e+00 1.203818e+00 3.574398e+00
      vertex   -2.771295e+00 1.199976e+00 3.549810e+00
    endloop
  endfacet
  facet normal -8.660254e-01 5.000000e-01 7.690023e-15
    outer loop
      vertex   -2.845284e+00 1.071824e+00 3.574521e+00
      vertex   -2.771295e+00 1.199976e+00 3.549810e+00
      vertex   -2.847070e+00 1.068730e+00 3.544820e+00
    endloop
  endfacet
  facet normal -8.660254e-01 5.000000e-01 -1.387265e-15
    outer loop
      vertex   -2.847070e+00 1.068730e+00 3.544820e+00
      vertex   -2.771295e+00 1.199976e+00 3.549810e+00
      vertex   -2.772630e+00 1.197663e+00 3.524969e+00
    endloop
  endfacet
  facet normal -8.660254e-01 5.000000e-01 4.360930e-15
    outer loop
      vertex   -2.847070e+00 1.068730e+00 3.544820e+00
      vertex   -2.772630e+00 1.197663e+00 3.524969e+00
      vertex   -2.847964e+00 1.067181e+00 3.514958e+00
    endloop
  endfacet
  facet normal -8.660254e-01 5.000000e-01 9.244320e-15
    outer loop
      vertex   -2.847964e+00 1.067181e+00 3.514958e+00
      vertex   -2.772630e+00 1.197663e+00 3.524969e+00
      vertex   -2.773076e+00 1.196891e+00 3.500000e+00
    endloop
  endfacet
  facet normal -8.660254e-01 5.000000e-01 0.000000e+00
    outer loop
      vertex   -2.847964e+00 1.067181e+00 3.514958e+00
      vertex   -2.773076e+00 1.196891e+00 3.500000e+00
      vertex   -2.847964e+00 1.067181e+00 3.485042e+00
    endloop
  endfacet
  facet normal -8.660254e-01 5.000000e-01 -9.244320e-15
    outer loop
      vertex   -2.847964e+00 1.067181e+00 3.485042e+00
      vertex   -2.773076e+00 1.196891e+00 3.500000e+00
      vertex   -2.772630e+00 1.197663e+00 3.475031e+00
    endloop
  endfacet
  facet normal -8.660254e-01 5.000000e-01 -4.363954e-15
    outer loop
      vertex   -2.847964e+00 1.067181e+00 3.485042e+00
      vertex   -2.772630e+00 1.197663e+00 3.475031e+00
      vertex   -2.847070e+00 1.068730e+00 3.455180e+00
    endloop
  endfacet
  facet normal -8.660254e-01 5.000000e-01 1.387265e-15
    outer loop
      vertex   -2.847070e+00 1.068730e+00 3.455180e+00
      vertex   -2.772630e+00 1.197663e+00 3.475031e+00
      vertex   -2.771295e+00 1.199976e+00 3.450190e+00
    endloop
  endfacet
  facet normal -8.660254e-01 5.000000e-01 -7.683977e-15
    outer loop
      vertex   -2.847070e+00 1.068730e+00 3.455180e+00
      vertex   -2.771295e+00 1.199976e+00 3.450190e+00
      vertex   -2.845284e+00 1.071824e+00 3.425479e+00
    endloop
  endfacet
  facet normal -8.660254e-01 5.000000e-01 2.314168e-15
    outer loop
      vertex   -2.845284e+00 1.071824e+00 3.425479e+00
      vertex   -2.771295e+00 1.199976e+00 3.450190e+00
      vertex   -2.769077e+00 1.203818e+00 3.425602e+00
    endloop
  endfacet
  facet normal -8.660254e-01 5.000000e-01 3.890341e-15
    outer loop
      vertex   -2.845284e+00 1.071824e+00 3.425479e+00
      vertex   -2.769077e+00 1.203818e+00 3.425602e+00
      vertex   -2.842613e+00 1.076450e+00 3.396044e+00
    endloop
  endfacet
  facet normal -8.660254e-01 5.000000e-01 1.014338e-14
    outer loop
      vertex   -2.842613e+00 1.076450e+00 3.396044e+00
      vertex   -2.769077e+00 1.203818e+00 3.425602e+00
      vertex   -2.839067e+00 1.082592e+00 3.366982e+00
    endloop
  endfacet
  facet normal -8.660254e-01 5.000000e-01 -4.624793e-15
    outer loop
      vertex   -2.839067e+00 1.082592e+00 3.366982e+00
      vertex   -2.769077e+00 1.203818e+00 3.425602e+00
      vertex   -2.765987e+00 1.209169e+00 3.401394e+00
    endloop
  endfacet
  facet normal -8.660254e-01 5.000000e-01 -3.798197e-15
    outer loop
      vertex   -2.839067e+00 1.082592e+00 3.366982e+00
      vertex   -2.765987e+00 1.209169e+00 3.401394e+00
      vertex   -2.834658e+00 1.090228e+00 3.338395e+00
    endloop
  endfacet
  facet normal -8.660254e-01 5.000000e-01 5.084611e-15
    outer loop
      vertex   -2.834658e+00 1.090228e+00 3.338395e+00
      vertex   -2.765987e+00 1.209169e+00 3.401394e+00
      vertex   -2.762042e+00 1.216002e+00 3.377688e+00
    endloop
  endfacet
  facet normal -8.660254e-01 5.000000e-01 -7.235036e-15
    outer loop
      vertex   -2.834658e+00 1.090228e+00 3.338395e+00
      vertex   -2.762042e+00 1.216002e+00 3.377688e+00
      vertex   -2.829402e+00 1.099331e+00 3.310387e+00
    endloop
  endfacet
  facet normal -8.660254e-01 5.000000e-01 -2.311005e-15
    outer loop
      vertex   -2.829402e+00 1.099331e+00 3.310387e+00
      vertex   -2.762042e+00 1.216002e+00 3.377688e+00
      vertex   -2.757262e+00 1.224282e+00 3.354605e+00
    endloop
  endfacet
  facet normal -8.660254e-01 5.000000e-01 1.287174e-14
    outer loop
      vertex   -2.829402e+00 1.099331e+00 3.310387e+00
      vertex   -2.757262e+00 1.224282e+00 3.354605e+00
      vertex   -2.823318e+00 1.109869e+00 3.283058e+00
    endloop
  endfacet
  facet normal -8.660254e-01 5.000000e-01 5.086074e-15
    outer loop
      vertex   -2.823318e+00 1.109869e+00 3.283058e+00
      vertex   -2.757262e+00 1.224282e+00 3.354605e+00
      vertex   -2.751670e+00 1.233968e+00 3.332263e+00
    endloop
  endfacet
  facet normal -8.660254e-01 5.000000e-01 -1.380964e-14
    outer loop
      vertex   -2.823318e+00 1.109869e+00 3.283058e+00
      vertex   -2.751670e+00 1.233968e+00 3.332263e+00
      vertex   -2.816428e+00 1.121803e+00 3.256506e+00
    endloop
  endfacet
  facet normal -8.660254e-01 5.000000e-01 -1.018041e-14
    outer loop
      vertex   -2.816428e+00 1.121803e+00 3.256506e+00
      vertex   -2.751670e+00 1.233968e+00 3.332263e+00
      vertex   -2.745296e+00 1.245009e+00 3.310776e+00
    endloop
  endfacet
  facet normal -8.660254e-01 5.000000e-01 6.525220e-15
    outer loop
      vertex   -2.816428e+00 1.121803e+00 3.256506e+00
      vertex   -2.745296e+00 1.245009e+00 3.310776e+00
      vertex   -2.808756e+00 1.135091e+00 3.230825e+00
    endloop
  endfacet
  facet normal -8.660254e-01 5.000000e-01 -5.947460e-15
    outer loop
      vertex   -2.808756e+00 1.135091e+00 3.230825e+00
      vertex   -2.745296e+00 1.245009e+00 3.310776e+00
      vertex   -2.800330e+00 1.149685e+00 3.206107e+00
    endloop
  endfacet
  facet normal -8.660254e-01 5.000000e-01 6.706880e-15
    outer loop
      vertex   -2.800330e+00 1.149685e+00 3.206107e+00
      vertex   -2.745296e+00 1.245009e+00 3.310776e+00
      vertex   -2.738171e+00 1.257349e+00 3.290253e+00
    endloop
  endfacet
  facet normal -8.660254e-01 5.000000e-01 6.483094e-15
    outer loop
      vertex   -2.800330e+00 1.149685e+00 3.206107e+00
      vertex   -2.738171e+00 1.257349e+00 3.290253e+00
      vertex   -2.791180e+00 1.165534e+00 3.182442e+00
    endloop
  endfacet
  facet normal -8.660254e-01 5.000000e-01 5.547181e-15
    outer loop
      vertex   -2.791180e+00 1.165534e+00 3.182442e+00
      vertex   -2.738171e+00 1.257349e+00 3.290253e+00
      vertex   -2.730332e+00 1.270926e+00 3.270799e+00
    endloop
  endfacet
  facet normal -8.660254e-01 5.000000e-01 -7.259128e-15
    outer loop
      vertex   -2.791180e+00 1.165534e+00 3.182442e+00
      vertex   -2.730332e+00 1.270926e+00 3.270799e+00
      vertex   -2.781339e+00 1.182579e+00 3.159914e+00
    endloop
  endfacet
  facet normal -8.660254e-01 5.000000e-01 -1.409687e-14
    outer loop
      vertex   -2.781339e+00 1.182579e+00 3.159914e+00
      vertex   -2.730332e+00 1.270926e+00 3.270799e+00
      vertex   -2.721820e+00 1.285670e+00 3.252513e+00
    endloop
  endfacet
  facet normal -8.660254e-01 5.000000e-01 4.258493e-15
    outer loop
      vertex   -2.781339e+00 1.182579e+00 3.159914e+00
      vertex   -2.721820e+00 1.285670e+00 3.252513e+00
      vertex   -2.770842e+00 1.200761e+00 3.138603e+00
    endloop
  endfacet
  facet normal -8.660254e-01 5.000000e-01 1.386977e-14
    outer loop
      vertex   -2.770842e+00 1.200761e+00 3.138603e+00
      vertex   -2.721820e+00 1.285670e+00 3.252513e+00
      vertex   -2.712677e+00 1.301506e+00 3.235488e+00
    endloop
  endfacet
  facet normal -8.660254e-01 5.000000e-01 2.660605e-15
    outer loop
      vertex   -2.770842e+00 1.200761e+00 3.138603e+00
      vertex   -2.712677e+00 1.301506e+00 3.235488e+00
      vertex   -2.759726e+00 1.220014e+00 3.118585e+00
    endloop
  endfacet
  facet normal -8.660254e-01 5.000000e-01 -1.758125e-14
    outer loop
      vertex   -2.759726e+00 1.220014e+00 3.118585e+00
      vertex   -2.712677e+00 1.301506e+00 3.235488e+00
      vertex   -2.702950e+00 1.318354e+00 3.219811e+00
    endloop
  endfacet
  facet normal -8.660254e-01 5.000000e-01 -4.447486e-15
    outer loop
      vertex   -2.759726e+00 1.220014e+00 3.118585e+00
      vertex   -2.702950e+00 1.318354e+00 3.219811e+00
      vertex   -2.748032e+00 1.240270e+00 3.099933e+00
    endloop
  endfacet
  facet normal -8.660254e-01 5.000000e-01 2.659076e-16
    outer loop
      vertex   -2.748032e+00 1.240270e+00 3.099933e+00
      vertex   -2.702950e+00 1.318354e+00 3.219811e+00
      vertex   -2.735800e+00 1.261455e+00 3.082713e+00
    endloop
  endfacet
  facet normal -8.660254e-01 5.000000e-01 8.095745e-15
    outer loop
      vertex   -2.735800e+00 1.261455e+00 3.082713e+00
      vertex   -2.702950e+00 1.318354e+00 3.219811e+00
      vertex   -2.692688e+00 1.336127e+00 3.205561e+00
    endloop
  endfacet
  facet normal -8.660254e-01 5.000000e-01 7.498506e-16
    outer loop
      vertex   -2.735800e+00 1.261455e+00 3.082713e+00
      vertex   -2.692688e+00 1.336127e+00 3.205561e+00
      vertex   -2.723076e+00 1.283494e+00 3.066987e+00
    endloop
  endfacet
  facet normal -8.660254e-01 5.000000e-01 -2.195921e-15
    outer loop
      vertex   -2.723076e+00 1.283494e+00 3.066987e+00
      vertex   -2.692688e+00 1.336127e+00 3.205561e+00
      vertex   -2.681945e+00 1.354735e+00 3.192812e+00
    endloop
  endfacet
  facet normal -8.660254e-01 5.000000e-01 8.299401e-15
    outer loop
      vertex   -2.723076e+00 1.283494e+00 3.066987e+00
      vertex   -2.681945e+00 1.354735e+00 3.192812e+00
      vertex   -2.709904e+00 1.306308e+00 3.052811e+00
    endloop
  endfacet
  facet normal -8.660254e-01 5.000000e-01 3.408654e-15
    outer loop
      vertex   -2.709904e+00 1.306308e+00 3.052811e+00
      vertex   -2.681945e+00 1.354735e+00 3.192812e+00
      vertex   -2.670774e+00 1.374084e+00 3.181629e+00
    endloop
  endfacet
  facet normal -8.660254e-01 5.000000e-01 -4.258624e-15
    outer loop
      vertex   -2.709904e+00 1.306308e+00 3.052811e+00
      vertex   -2.670774e+00 1.374084e+00 3.181629e+00
      vertex   -2.696332e+00 1.329815e+00 3.040236e+00
    endloop
  endfacet
  facet normal -8.660254e-01 5.000000e-01 -3.467153e-16
    outer loop
      vertex   -2.696332e+00 1.329815e+00 3.040236e+00
      vertex   -2.670774e+00 1.374084e+00 3.181629e+00
      vertex   -2.659232e+00 1.394074e+00 3.172068e+00
    endloop
  endfacet
  facet normal -8.660254e-01 5.000000e-01 -3.870303e-16
    outer loop
      vertex   -2.696332e+00 1.329815e+00 3.040236e+00
      vertex   -2.659232e+00 1.394074e+00 3.172068e+00
      vertex   -2.682409e+00 1.353932e+00 3.029307e+00
    endloop
  endfacet
  facet normal -8.660254e-01 5.000000e-01 -1.040827e-15
    outer loop
      vertex   -2.682409e+00 1.353932e+00 3.029307e+00
      vertex   -2.659232e+00 1.394074e+00 3.172068e+00
      vertex   -2.647379e+00 1.414604e+00 3.164177e+00
    endloop
  endfacet
  facet normal -8.660254e-01 5.000000e-01 2.030660e-15
    outer loop
      vertex   -2.682409e+00 1.353932e+00 3.029307e+00
      vertex   -2.647379e+00 1.414604e+00 3.164177e+00
      vertex   -2.668183e+00 1.378571e+00 3.020062e+00
    endloop
  endfacet
  facet normal -8.660254e-01 5.000000e-01 -4.350588e-16
    outer loop
      vertex   -2.668183e+00 1.378571e+00 3.020062e+00
      vertex   -2.647379e+00 1.414604e+00 3.164177e+00
      vertex   -2.653706e+00 1.403646e+00 3.012536e+00
    endloop
  endfacet
  facet normal -8.660254e-01 5.000000e-01 9.253819e-16
    outer loop
      vertex   -2.653706e+00 1.403646e+00 3.012536e+00
      vertex   -2.647379e+00 1.414604e+00 3.164177e+00
      vertex   -2.635275e+00 1.435570e+00 3.157999e+00
    endloop
  endfacet
  facet normal -8.660254e-01 5.000000e-01 -2.660523e-15
    outer loop
      vertex   -2.653706e+00 1.403646e+00 3.012536e+00
      vertex   -2.635275e+00 1.435570e+00 3.157999e+00
      vertex   -2.639031e+00 1.429065e+00 3.006755e+00
    endloop
  endfacet
  facet normal -8.660254e-01 5.000000e-01 -2.445344e-15
    outer loop
      vertex   -2.639031e+00 1.429065e+00 3.006755e+00
      vertex   -2.635275e+00 1.435570e+00 3.157999e+00
      vertex   -2.622981e+00 1.456863e+00 3.153562e+00
    endloop
  endfacet
  facet normal -8.660254e-01 5.000000e-01 -7.863596e-16
    outer loop
      vertex   -2.639031e+00 1.429065e+00 3.006755e+00
      vertex   -2.622981e+00 1.456863e+00 3.153562e+00
      vertex   -2.624208e+00 1.454738e+00 3.002739e+00
    endloop
  endfacet
  facet normal -8.660254e-01 5.000000e-01 -1.158195e-15
    outer loop
      vertex   -2.624208e+00 1.454738e+00 3.002739e+00
      vertex   -2.622981e+00 1.456863e+00 3.153562e+00
      vertex   -2.610561e+00 1.478376e+00 3.150892e+00
    endloop
  endfacet
  facet normal -8.660254e-01 5.000000e-01 7.259171e-17
    outer loop
      vertex   -2.624208e+00 1.454738e+00 3.002739e+00
      vertex   -2.610561e+00 1.478376e+00 3.150892e+00
      vertex   -2.609292e+00 1.480573e+00 3.000503e+00
    endloop
  endfacet
  facet normal -8.660254e-01 5.000000e-01 -1.345235e-16
    outer loop
      vertex   -2.609292e+00 1.480573e+00 3.000503e+00
      vertex   -2.610561e+00 1.478376e+00 3.150892e+00
      vertex   -2.598076e+00 1.500000e+00 3.150000e+00
    endloop
  endfacet
  facet normal -8.660254e-01 5.000000e-01 2.044160e-15
    outer loop
      vertex   -2.609292e+00 1.480573e+00 3.000503e+00
      vertex   -2.598076e+00 1.500000e+00 3.150000e+00
      vertex   -2.594336e+00 1.506478e+00 3.000056e+00
    endloop
  endfacet
  facet normal -8.660254e-01 5.000000e-01 3.087691e-15
    outer loop
      vertex   -2.594336e+00 1.506478e+00 3.000056e+00
      vertex   -2.598076e+00 1.500000e+00 3.150000e+00
      vertex   -2.585592e+00 1.521624e+00 3.150892e+00
    endloop
  endfacet
  facet normal -8.660254e-01 5.000000e-01 1.589684e-15
    outer loop
      vertex   -2.594336e+00 1.506478e+00 3.000056e+00
      vertex   -2.585592e+00 1.521624e+00 3.150892e+00
      vertex   -2.579394e+00 1.532359e+00 3.001398e+00
    endloop
  endfacet
  facet normal -8.660254e-01 5.000000e-01 5.497815e-16
    outer loop
      vertex   -2.579394e+00 1.532359e+00 3.001398e+00
      vertex   -2.585592e+00 1.521624e+00 3.150892e+00
      vertex   -2.564518e+00 1.558125e+00 3.004525e+00
    endloop
  endfacet
  facet normal -8.660254e-01 5.000000e-01 2.111408e-15
    outer loop
      vertex   -2.564518e+00 1.558125e+00 3.004525e+00
      vertex   -2.585592e+00 1.521624e+00 3.150892e+00
      vertex   -2.573171e+00 1.543137e+00 3.153562e+00
    endloop
  endfacet
  facet normal -8.660254e-01 5.000000e-01 1.408729e-15
    outer loop
      vertex   -2.564518e+00 1.558125e+00 3.004525e+00
      vertex   -2.573171e+00 1.543137e+00 3.153562e+00
      vertex   -2.549762e+00 1.583682e+00 3.009426e+00
    endloop
  endfacet
  facet normal -8.660254e-01 5.000000e-01 -4.233729e-15
    outer loop
      vertex   -2.549762e+00 1.583682e+00 3.009426e+00
      vertex   -2.573171e+00 1.543137e+00 3.153562e+00
      vertex   -2.560877e+00 1.564430e+00 3.157999e+00
    endloop
  endfacet
  facet normal -8.660254e-01 5.000000e-01 -3.653388e-15
    outer loop
      vertex   -2.549762e+00 1.583682e+00 3.009426e+00
      vertex   -2.560877e+00 1.564430e+00 3.157999e+00
      vertex   -2.535180e+00 1.608940e+00 3.016083e+00
    endloop
  endfacet
  facet normal -8.660254e-01 5.000000e-01 3.582091e-15
    outer loop
      vertex   -2.535180e+00 1.608940e+00 3.016083e+00
      vertex   -2.560877e+00 1.564430e+00 3.157999e+00
      vertex   -2.548773e+00 1.585396e+00 3.164177e+00
    endloop
  endfacet
  facet normal -8.660254e-01 5.000000e-01 1.560739e-15
    outer loop
      vertex   -2.535180e+00 1.608940e+00 3.016083e+00
      vertex   -2.548773e+00 1.585396e+00 3.164177e+00
      vertex   -2.520822e+00 1.633808e+00 3.024472e+00
    endloop
  endfacet
  facet normal -8.660254e-01 5.000000e-01 -2.282258e-15
    outer loop
      vertex   -2.520822e+00 1.633808e+00 3.024472e+00
      vertex   -2.548773e+00 1.585396e+00 3.164177e+00
      vertex   -2.536920e+00 1.605926e+00 3.172068e+00
    endloop
  endfacet
  facet normal -8.660254e-01 5.000000e-01 -1.572535e-16
    outer loop
      vertex   -2.520822e+00 1.633808e+00 3.024472e+00
      vertex   -2.536920e+00 1.605926e+00 3.172068e+00
      vertex   -2.506741e+00 1.658197e+00 3.034563e+00
    endloop
  endfacet
  facet normal -8.660254e-01 5.000000e-01 3.699675e-15
    outer loop
      vertex   -2.506741e+00 1.658197e+00 3.034563e+00
      vertex   -2.536920e+00 1.605926e+00 3.172068e+00
      vertex   -2.525379e+00 1.625916e+00 3.181629e+00
    endloop
  endfacet
  facet normal -8.660254e-01 5.000000e-01 1.112309e-15
    outer loop
      vertex   -2.506741e+00 1.658197e+00 3.034563e+00
      vertex   -2.525379e+00 1.625916e+00 3.181629e+00
      vertex   -2.492987e+00 1.682020e+00 3.046321e+00
    endloop
  endfacet
  facet normal -8.660254e-01 5.000000e-01 5.243212e-15
    outer loop
      vertex   -2.492987e+00 1.682020e+00 3.046321e+00
      vertex   -2.525379e+00 1.625916e+00 3.181629e+00
      vertex   -2.479609e+00 1.705191e+00 3.059702e+00
    endloop
  endfacet
  facet normal -8.660254e-01 5.000000e-01 -3.471482e-16
    outer loop
      vertex   -2.479609e+00 1.705191e+00 3.059702e+00
      vertex   -2.525379e+00 1.625916e+00 3.181629e+00
      vertex   -2.514208e+00 1.645265e+00 3.192812e+00
    endloop
  endfacet
  facet normal -8.660254e-01 5.000000e-01 9.672624e-16
    outer loop
      vertex   -2.479609e+00 1.705191e+00 3.059702e+00
      vertex   -2.514208e+00 1.645265e+00 3.192812e+00
      vertex   -2.466655e+00 1.727628e+00 3.074660e+00
    endloop
  endfacet
  facet normal -8.660254e-01 5.000000e-01 3.005861e-15
    outer loop
      vertex   -2.466655e+00 1.727628e+00 3.074660e+00
      vertex   -2.514208e+00 1.645265e+00 3.192812e+00
      vertex   -2.503464e+00 1.663873e+00 3.205561e+00
    endloop
  endfacet
  facet normal -8.660254e-01 5.000000e-01 2.346753e-15
    outer loop
      vertex   -2.466655e+00 1.727628e+00 3.074660e+00
      vertex   -2.503464e+00 1.663873e+00 3.205561e+00
      vertex   -2.454172e+00 1.749250e+00 3.091140e+00
    endloop
  endfacet
  facet normal -8.660254e-01 5.000000e-01 3.120001e-15
    outer loop
      vertex   -2.454172e+00 1.749250e+00 3.091140e+00
      vertex   -2.503464e+00 1.663873e+00 3.205561e+00
      vertex   -2.493203e+00 1.681646e+00 3.219811e+00
    endloop
  endfacet
  facet normal -8.660254e-01 5.000000e-01 4.839510e-16
    outer loop
      vertex   -2.454172e+00 1.749250e+00 3.091140e+00
      vertex   -2.493203e+00 1.681646e+00 3.219811e+00
      vertex   -2.442204e+00 1.769979e+00 3.109084e+00
    endloop
  endfacet
  facet normal -8.660254e-01 5.000000e-01 -4.390998e-15
    outer loop
      vertex   -2.442204e+00 1.769979e+00 3.109084e+00
      vertex   -2.493203e+00 1.681646e+00 3.219811e+00
      vertex   -2.483476e+00 1.698494e+00 3.235488e+00
    endloop
  endfacet
  facet normal -8.660254e-01 5.000000e-01 -1.596818e-15
    outer loop
      vertex   -2.442204e+00 1.769979e+00 3.109084e+00
      vertex   -2.483476e+00 1.698494e+00 3.235488e+00
      vertex   -2.430794e+00 1.789742e+00 3.128428e+00
    endloop
  endfacet
  facet normal -8.660254e-01 5.000000e-01 8.323269e-15
    outer loop
      vertex   -2.430794e+00 1.789742e+00 3.128428e+00
      vertex   -2.483476e+00 1.698494e+00 3.235488e+00
      vertex   -2.474333e+00 1.714330e+00 3.252513e+00
    endloop
  endfacet
  facet normal -8.660254e-01 5.000000e-01 9.262218e-15
    outer loop
      vertex   -2.430794e+00 1.789742e+00 3.128428e+00
      vertex   -2.474333e+00 1.714330e+00 3.252513e+00
      vertex   -2.419982e+00 1.808468e+00 3.149101e+00
    endloop
  endfacet
  facet normal -8.660254e-01 5.000000e-01 -9.024670e-15
    outer loop
      vertex   -2.419982e+00 1.808468e+00 3.149101e+00
      vertex   -2.474333e+00 1.714330e+00 3.252513e+00
      vertex   -2.465820e+00 1.729074e+00 3.270799e+00
    endloop
  endfacet
  facet normal -8.660254e-01 5.000000e-01 -3.383090e-15
    outer loop
      vertex   -2.419982e+00 1.808468e+00 3.149101e+00
      vertex   -2.465820e+00 1.729074e+00 3.270799e+00
      vertex   -2.409808e+00 1.826090e+00 3.171031e+00
    endloop
  endfacet
  facet normal -8.660254e-01 5.000000e-01 4.980813e-15
    outer loop
      vertex   -2.409808e+00 1.826090e+00 3.171031e+00
      vertex   -2.465820e+00 1.729074e+00 3.270799e+00
      vertex   -2.400308e+00 1.842544e+00 3.194138e+00
    endloop
  endfacet
  facet normal -8.660254e-01 5.000000e-01 -8.556250e-15
    outer loop
      vertex   -2.400308e+00 1.842544e+00 3.194138e+00
      vertex   -2.465820e+00 1.729074e+00 3.270799e+00
      vertex   -2.457981e+00 1.742651e+00 3.290253e+00
    endloop
  endfacet
  facet normal -8.660254e-01 5.000000e-01 -2.322413e-15
    outer loop
      vertex   -2.400308e+00 1.842544e+00 3.194138e+00
      vertex   -2.457981e+00 1.742651e+00 3.290253e+00
      vertex   -2.391517e+00 1.857772e+00 3.218340e+00
    endloop
  endfacet
  facet normal -8.660254e-01 5.000000e-01 3.235721e-15
    outer loop
      vertex   -2.391517e+00 1.857772e+00 3.218340e+00
      vertex   -2.457981e+00 1.742651e+00 3.290253e+00
      vertex   -2.450857e+00 1.754991e+00 3.310776e+00
    endloop
  endfacet
  facet normal -8.660254e-01 5.000000e-01 -8.493271e-15
    outer loop
      vertex   -2.391517e+00 1.857772e+00 3.218340e+00
      vertex   -2.450857e+00 1.754991e+00 3.310776e+00
      vertex   -2.383464e+00 1.871719e+00 3.243550e+00
    endloop
  endfacet
  facet normal -8.660254e-01 5.000000e-01 -4.621975e-15
    outer loop
      vertex   -2.383464e+00 1.871719e+00 3.243550e+00
      vertex   -2.450857e+00 1.754991e+00 3.310776e+00
      vertex   -2.444482e+00 1.766032e+00 3.332263e+00
    endloop
  endfacet
  facet normal -8.660254e-01 5.000000e-01 -6.000448e-15
    outer loop
      vertex   -2.383464e+00 1.871719e+00 3.243550e+00
      vertex   -2.444482e+00 1.766032e+00 3.332263e+00
      vertex   -2.376180e+00 1.884336e+00 3.269679e+00
    endloop
  endfacet
  facet normal -8.660254e-01 5.000000e-01 9.478272e-15
    outer loop
      vertex   -2.376180e+00 1.884336e+00 3.269679e+00
      vertex   -2.444482e+00 1.766032e+00 3.332263e+00
      vertex   -2.438891e+00 1.775718e+00 3.354605e+00
    endloop
  endfacet
  facet normal -8.660254e-01 5.000000e-01 3.797171e-15
    outer loop
      vertex   -2.376180e+00 1.884336e+00 3.269679e+00
      vertex   -2.438891e+00 1.775718e+00 3.354605e+00
      vertex   -2.369690e+00 1.895577e+00 3.296632e+00
    endloop
  endfacet
  facet normal -8.660254e-01 5.000000e-01 2.082231e-15
    outer loop
      vertex   -2.369690e+00 1.895577e+00 3.296632e+00
      vertex   -2.438891e+00 1.775718e+00 3.354605e+00
      vertex   -2.434110e+00 1.783998e+00 3.377688e+00
    endloop
  endfacet
  facet normal -8.660254e-01 5.000000e-01 1.063424e-15
    outer loop
      vertex   -2.369690e+00 1.895577e+00 3.296632e+00
      vertex   -2.434110e+00 1.783998e+00 3.377688e+00
      vertex   -2.364017e+00 1.905402e+00 3.324313e+00
    endloop
  endfacet
  facet normal -8.660254e-01 5.000000e-01 8.461463e-15
    outer loop
      vertex   -2.364017e+00 1.905402e+00 3.324313e+00
      vertex   -2.434110e+00 1.783998e+00 3.377688e+00
      vertex   -2.359183e+00 1.913775e+00 3.352622e+00
    endloop
  endfacet
  facet normal -8.660254e-01 5.000000e-01 -5.550795e-15
    outer loop
      vertex   -2.359183e+00 1.913775e+00 3.352622e+00
      vertex   -2.434110e+00 1.783998e+00 3.377688e+00
      vertex   -2.430165e+00 1.790831e+00 3.401394e+00
    endloop
  endfacet
  facet normal -8.660254e-01 5.000000e-01 -2.467384e-15
    outer loop
      vertex   -2.359183e+00 1.913775e+00 3.352622e+00
      vertex   -2.430165e+00 1.790831e+00 3.401394e+00
      vertex   -2.355204e+00 1.920668e+00 3.381460e+00
    endloop
  endfacet
  facet normal -8.660254e-01 5.000000e-01 -6.009585e-15
    outer loop
      vertex   -2.355204e+00 1.920668e+00 3.381460e+00
      vertex   -2.430165e+00 1.790831e+00 3.401394e+00
      vertex   -2.427076e+00 1.796182e+00 3.425602e+00
    endloop
  endfacet
  facet normal -8.660254e-01 5.000000e-01 -1.080393e-14
    outer loop
      vertex   -2.355204e+00 1.920668e+00 3.381460e+00
      vertex   -2.427076e+00 1.796182e+00 3.425602e+00
      vertex   -2.352094e+00 1.926054e+00 3.410722e+00
    endloop
  endfacet
  facet normal -8.660254e-01 5.000000e-01 1.247916e-14
    outer loop
      vertex   -2.352094e+00 1.926054e+00 3.410722e+00
      vertex   -2.427076e+00 1.796182e+00 3.425602e+00
      vertex   -2.424857e+00 1.800024e+00 3.450190e+00
    endloop
  endfacet
  facet normal -8.660254e-01 5.000000e-01 1.113028e-15
    outer loop
      vertex   -2.352094e+00 1.926054e+00 3.410722e+00
      vertex   -2.424857e+00 1.800024e+00 3.450190e+00
      vertex   -2.349864e+00 1.929915e+00 3.440303e+00
    endloop
  endfacet
  facet normal -8.660254e-01 5.000000e-01 -6.010056e-15
    outer loop
      vertex   -2.349864e+00 1.929915e+00 3.440303e+00
      vertex   -2.424857e+00 1.800024e+00 3.450190e+00
      vertex   -2.423522e+00 1.802337e+00 3.475031e+00
    endloop
  endfacet
  facet normal -8.660254e-01 5.000000e-01 -1.862479e-15
    outer loop
      vertex   -2.349864e+00 1.929915e+00 3.440303e+00
      vertex   -2.423522e+00 1.802337e+00 3.475031e+00
      vertex   -2.348524e+00 1.932238e+00 3.470098e+00
    endloop
  endfacet
  facet normal -8.660254e-01 5.000000e-01 -1.387917e-15
    outer loop
      vertex   -2.348524e+00 1.932238e+00 3.470098e+00
      vertex   -2.423522e+00 1.802337e+00 3.475031e+00
      vertex   -2.423076e+00 1.803109e+00 3.500000e+00
    endloop
  endfacet
endsolid
