solid outlet3
  facet normal -8.660254e-01 -5.000000e-01 0.000000e+00
    outer loop
      vertex   -2.773076e+00 -1.196891e+00 3.500000e+00
      vertex   -2.772763e+00 -1.197434e+00 3.479069e+00
      vertex   -2.772763e+00 -1.197434e+00 3.520931e+00
    endloop
  endfacet
  facet normal -8.660254e-01 -5.000000e-01 -0.000000e+00
    outer loop
      vertex   -2.772763e+00 -1.197434e+00 3.520931e+00
      vertex   -2.772763e+00 -1.197434e+00 3.479069e+00
      vertex   -2.771824e+00 -1.199059e+00 3.541788e+00
    endloop
  endfacet
  facet normal -8.660254e-01 -5.000000e-01 -0.000000e+00
    outer loop
      vertex   -2.771824e+00 -1.199059e+00 3.541788e+00
      vertex   -2.772763e+00 -1.197434e+00 3.479069e+00
      vertex   -2.771824e+00 -1.199059e+00 3.458212e+00
    endloop
  endfacet
  facet normal -8.660254e-01 -5.000000e-01 -0.000000e+00
    outer loop
      vertex   -2.771824e+00 -1.199059e+00 3.541788e+00
      vertex   -2.771824e+00 -1.199059e+00 3.458212e+00
      vertex   -2.770264e+00 -1.201762e+00 3.562495e+00
    endloop
  endfacet
  facet normal -8.660254e-01 -5.000000e-01 -0.000000e+00
    outer loop
      vertex   -2.770264e+00 -1.201762e+00 3.562495e+00
      vertex   -2.771824e+00 -1.199059e+00 3.458212e+00
      vertex   -2.770264e+00 -1.201762e+00 3.437505e+00
    endloop
  endfacet
  facet normal -8.660254e-01 -5.000000e-01 -0.000000e+00
    outer loop
      vertex   -2.770264e+00 -1.201762e+00 3.562495e+00
      vertex   -2.770264e+00 -1.201762e+00 3.437505e+00
      vertex   -2.768087e+00 -1.205533e+00 3.582978e+00
    endloop
  endfacet
  facet normal -8.660254e-01 -5.000000e-01 -4.634866e-15
    outer loop
      vertex   -2.768087e+00 -1.205533e+00 3.582978e+00
      vertex   -2.770264e+00 -1.201762e+00 3.437505e+00
      vertex   -2.768087e+00 -1.205533e+00 3.417022e+00
    endloop
  endfacet
  facet normal -8.660254e-01 -5.000000e-01 -4.634866e-15
    outer loop
      vertex   -2.768087e+00 -1.205533e+00 3.582978e+00
      vertex   -2.768087e+00 -1.205533e+00 3.417022e+00
      vertex   -2.765301e+00 -1.210357e+00 3.603164e+00
    endloop
  endfacet
  facet normal -8.660254e-01 -5.000000e-01 5.380848e-16
    outer loop
      vertex   -2.765301e+00 -1.210357e+00 3.603164e+00
      vertex   -2.768087e+00 -1.205533e+00 3.417022e+00
      vertex   -2.765301e+00 -1.210357e+00 3.396836e+00
    endloop
  endfacet
  facet normal -8.660254e-01 -5.000000e-01 5.380848e-16
    outer loop
      vertex   -2.765301e+00 -1.210357e+00 3.603164e+00
      vertex   -2.765301e+00 -1.210357e+00 3.396836e+00
      vertex   -2.761917e+00 -1.216219e+00 3.622981e+00
    endloop
  endfacet
  facet normal -8.660254e-01 -5.000000e-01 -0.000000e+00
    outer loop
      vertex   -2.761917e+00 -1.216219e+00 3.622981e+00
      vertex   -2.765301e+00 -1.210357e+00 3.396836e+00
      vertex   -2.761917e+00 -1.216219e+00 3.377019e+00
    endloop
  endfacet
  facet normal -8.660254e-01 -5.000000e-01 -0.000000e+00
    outer loop
      vertex   -2.761917e+00 -1.216219e+00 3.622981e+00
      vertex   -2.761917e+00 -1.216219e+00 3.377019e+00
      vertex   -2.757947e+00 -1.223096e+00 3.642358e+00
    endloop
  endfacet
  facet normal -8.660254e-01 -5.000000e-01 3.899410e-16
    outer loop
      vertex   -2.757947e+00 -1.223096e+00 3.642358e+00
      vertex   -2.761917e+00 -1.216219e+00 3.377019e+00
      vertex   -2.757947e+00 -1.223096e+00 3.357642e+00
    endloop
  endfacet
  facet normal -8.660254e-01 -5.000000e-01 3.899410e-16
    outer loop
      vertex   -2.757947e+00 -1.223096e+00 3.642358e+00
      vertex   -2.757947e+00 -1.223096e+00 3.357642e+00
      vertex   -2.753404e+00 -1.230965e+00 3.661225e+00
    endloop
  endfacet
  facet normal -8.660254e-01 -5.000000e-01 -0.000000e+00
    outer loop
      vertex   -2.753404e+00 -1.230965e+00 3.661225e+00
      vertex   -2.757947e+00 -1.223096e+00 3.357642e+00
      vertex   -2.753404e+00 -1.230965e+00 3.338775e+00
    endloop
  endfacet
  facet normal -8.660254e-01 -5.000000e-01 -0.000000e+00
    outer loop
      vertex   -2.753404e+00 -1.230965e+00 3.661225e+00
      vertex   -2.753404e+00 -1.230965e+00 3.338775e+00
      vertex   -2.748305e+00 -1.239797e+00 3.679515e+00
    endloop
  endfacet
  facet normal -8.660254e-01 -5.000000e-01 -0.000000e+00
    outer loop
      vertex   -2.748305e+00 -1.239797e+00 3.679515e+00
      vertex   -2.753404e+00 -1.230965e+00 3.338775e+00
      vertex   -2.748305e+00 -1.239797e+00 3.320485e+00
    endloop
  endfacet
  facet normal -8.660254e-01 -5.000000e-01 -0.000000e+00
    outer loop
      vertex   -2.748305e+00 -1.239797e+00 3.679515e+00
      vertex   -2.748305e+00 -1.239797e+00 3.320485e+00
      vertex   -2.742668e+00 -1.249560e+00 3.697162e+00
    endloop
  endfacet
  facet normal -8.660254e-01 -5.000000e-01 -0.000000e+00
    outer loop
      vertex   -2.742668e+00 -1.249560e+00 3.697162e+00
      vertex   -2.748305e+00 -1.239797e+00 3.320485e+00
      vertex   -2.742668e+00 -1.249560e+00 3.302838e+00
    endloop
  endfacet
  facet normal -8.660254e-01 -5.000000e-01 -0.000000e+00
    outer loop
      vertex   -2.742668e+00 -1.249560e+00 3.697162e+00
      vertex   -2.742668e+00 -1.249560e+00 3.302838e+00
      vertex   -2.736514e+00 -1.260219e+00 3.714104e+00
    endloop
  endfacet
  facet normal -8.660254e-01 -5.000000e-01 2.592725e-16
    outer loop
      vertex   -2.736514e+00 -1.260219e+00 3.714104e+00
      vertex   -2.742668e+00 -1.249560e+00 3.302838e+00
      vertex   -2.736514e+00 -1.260219e+00 3.285896e+00
    endloop
  endfacet
  facet normal -8.660254e-01 -5.000000e-01 2.592725e-16
    outer loop
      vertex   -2.736514e+00 -1.260219e+00 3.714104e+00
      vertex   -2.736514e+00 -1.260219e+00 3.285896e+00
      vertex   -2.729864e+00 -1.271737e+00 3.730279e+00
    endloop
  endfacet
  facet normal -8.660254e-01 -5.000000e-01 -0.000000e+00
    outer loop
      vertex   -2.729864e+00 -1.271737e+00 3.730279e+00
      vertex   -2.736514e+00 -1.260219e+00 3.285896e+00
      vertex   -2.729864e+00 -1.271737e+00 3.269721e+00
    endloop
  endfacet
  facet normal -8.660254e-01 -5.000000e-01 -0.000000e+00
    outer loop
      vertex   -2.729864e+00 -1.271737e+00 3.730279e+00
      vertex   -2.729864e+00 -1.271737e+00 3.269721e+00
      vertex   -2.722742e+00 -1.284072e+00 3.745629e+00
    endloop
  endfacet
  facet normal -8.660254e-01 -5.000000e-01 -0.000000e+00
    outer loop
      vertex   -2.722742e+00 -1.284072e+00 3.745629e+00
      vertex   -2.729864e+00 -1.271737e+00 3.269721e+00
      vertex   -2.722742e+00 -1.284072e+00 3.254371e+00
    endloop
  endfacet
  facet normal -8.660254e-01 -5.000000e-01 -0.000000e+00
    outer loop
      vertex   -2.722742e+00 -1.284072e+00 3.745629e+00
      vertex   -2.722742e+00 -1.284072e+00 3.254371e+00
      vertex   -2.715174e+00 -1.297181e+00 3.760101e+00
    endloop
  endfacet
  facet normal -8.660254e-01 -5.000000e-01 -5.258929e-16
    outer loop
      vertex   -2.715174e+00 -1.297181e+00 3.760101e+00
      vertex   -2.722742e+00 -1.284072e+00 3.254371e+00
      vertex   -2.715174e+00 -1.297181e+00 3.239899e+00
    endloop
  endfacet
  facet normal -8.660254e-01 -5.000000e-01 -5.258929e-16
    outer loop
      vertex   -2.715174e+00 -1.297181e+00 3.760101e+00
      vertex   -2.715174e+00 -1.297181e+00 3.239899e+00
      vertex   -2.707187e+00 -1.311015e+00 3.773641e+00
    endloop
  endfacet
  facet normal -8.660254e-01 -5.000000e-01 -0.000000e+00
    outer loop
      vertex   -2.707187e+00 -1.311015e+00 3.773641e+00
      vertex   -2.715174e+00 -1.297181e+00 3.239899e+00
      vertex   -2.707187e+00 -1.311015e+00 3.226359e+00
    endloop
  endfacet
  facet normal -8.660254e-01 -5.000000e-01 -0.000000e+00
    outer loop
      vertex   -2.707187e+00 -1.311015e+00 3.773641e+00
      vertex   -2.707187e+00 -1.311015e+00 3.226359e+00
      vertex   -2.698809e+00 -1.325525e+00 3.786202e+00
    endloop
  endfacet
  facet normal -8.660254e-01 -5.000000e-01 -0.000000e+00
    outer loop
      vertex   -2.698809e+00 -1.325525e+00 3.786202e+00
      vertex   -2.707187e+00 -1.311015e+00 3.226359e+00
      vertex   -2.698809e+00 -1.325525e+00 3.213798e+00
    endloop
  endfacet
  facet normal -8.660254e-01 -5.000000e-01 -0.000000e+00
    outer loop
      vertex   -2.698809e+00 -1.325525e+00 3.786202e+00
      vertex   -2.698809e+00 -1.325525e+00 3.213798e+00
      vertex   -2.690071e+00 -1.340661e+00 3.797738e+00
    endloop
  endfacet
  facet normal -8.660254e-01 -5.000000e-01 -0.000000e+00
    outer loop
      vertex   -2.690071e+00 -1.340661e+00 3.797738e+00
      vertex   -2.698809e+00 -1.325525e+00 3.213798e+00
      vertex   -2.690071e+00 -1.340661e+00 3.202262e+00
    endloop
  endfacet
  facet normal -8.660254e-01 -5.000000e-01 -0.000000e+00
    outer loop
      vertex   -2.690071e+00 -1.340661e+00 3.797738e+00
      vertex   -2.690071e+00 -1.340661e+00 3.202262e+00
      vertex   -2.681003e+00 -1.356366e+00 3.808208e+00
    endloop
  endfacet
  facet normal -8.660254e-01 -5.000000e-01 -0.000000e+00
    outer loop
      vertex   -2.681003e+00 -1.356366e+00 3.808208e+00
      vertex   -2.690071e+00 -1.340661e+00 3.202262e+00
      vertex   -2.681003e+00 -1.356366e+00 3.191792e+00
    endloop
  endfacet
  facet normal -8.660254e-01 -5.000000e-01 -0.000000e+00
    outer loop
      vertex   -2.681003e+00 -1.356366e+00 3.808208e+00
      vertex   -2.681003e+00 -1.356366e+00 3.191792e+00
      vertex   -2.671639e+00 -1.372586e+00 3.817576e+00
    endloop
  endfacet
  facet normal -8.660254e-01 -5.000000e-01 3.495934e-16
    outer loop
      vertex   -2.671639e+00 -1.372586e+00 3.817576e+00
      vertex   -2.681003e+00 -1.356366e+00 3.191792e+00
      vertex   -2.671639e+00 -1.372586e+00 3.182424e+00
    endloop
  endfacet
  facet normal -8.660254e-01 -5.000000e-01 3.495934e-16
    outer loop
      vertex   -2.671639e+00 -1.372586e+00 3.817576e+00
      vertex   -2.671639e+00 -1.372586e+00 3.182424e+00
      vertex   -2.662011e+00 -1.389262e+00 3.825806e+00
    endloop
  endfacet
  facet normal -8.660254e-01 -5.000000e-01 3.407622e-16
    outer loop
      vertex   -2.662011e+00 -1.389262e+00 3.825806e+00
      vertex   -2.671639e+00 -1.372586e+00 3.182424e+00
      vertex   -2.662011e+00 -1.389262e+00 3.174194e+00
    endloop
  endfacet
  facet normal -8.660254e-01 -5.000000e-01 3.407622e-16
    outer loop
      vertex   -2.662011e+00 -1.389262e+00 3.825806e+00
      vertex   -2.662011e+00 -1.389262e+00 3.174194e+00
      vertex   -2.652154e+00 -1.406334e+00 3.832870e+00
    endloop
  endfacet
  facet normal -8.660254e-01 -5.000000e-01 -0.000000e+00
    outer loop
      vertex   -2.652154e+00 -1.406334e+00 3.832870e+00
      vertex   -2.662011e+00 -1.389262e+00 3.174194e+00
      vertex   -2.652154e+00 -1.406334e+00 3.167130e+00
    endloop
  endfacet
  facet normal -8.660254e-01 -5.000000e-01 -0.000000e+00
    outer loop
      vertex   -2.652154e+00 -1.406334e+00 3.832870e+00
      vertex   -2.652154e+00 -1.406334e+00 3.167130e+00
      vertex   -2.642104e+00 -1.423742e+00 3.838742e+00
    endloop
  endfacet
  facet normal -8.660254e-01 -5.000000e-01 -0.000000e+00
    outer loop
      vertex   -2.642104e+00 -1.423742e+00 3.838742e+00
      vertex   -2.652154e+00 -1.406334e+00 3.167130e+00
      vertex   -2.642104e+00 -1.423742e+00 3.161258e+00
    endloop
  endfacet
  facet normal -8.660254e-01 -5.000000e-01 -0.000000e+00
    outer loop
      vertex   -2.642104e+00 -1.423742e+00 3.838742e+00
      vertex   -2.642104e+00 -1.423742e+00 3.161258e+00
      vertex   -2.631896e+00 -1.441422e+00 3.843402e+00
    endloop
  endfacet
  facet normal -8.660254e-01 -5.000000e-01 -2.366730e-16
    outer loop
      vertex   -2.631896e+00 -1.441422e+00 3.843402e+00
      vertex   -2.642104e+00 -1.423742e+00 3.161258e+00
      vertex   -2.631896e+00 -1.441422e+00 3.156598e+00
    endloop
  endfacet
  facet normal -8.660254e-01 -5.000000e-01 -2.366730e-16
    outer loop
      vertex   -2.631896e+00 -1.441422e+00 3.843402e+00
      vertex   -2.631896e+00 -1.441422e+00 3.156598e+00
      vertex   -2.621567e+00 -1.459313e+00 3.846832e+00
    endloop
  endfacet
  facet normal -8.660254e-01 -5.000000e-01 -0.000000e+00
    outer loop
      vertex   -2.621567e+00 -1.459313e+00 3.846832e+00
      vertex   -2.631896e+00 -1.441422e+00 3.156598e+00
      vertex   -2.621567e+00 -1.459313e+00 3.153168e+00
    endloop
  endfacet
  facet normal -8.660254e-01 -5.000000e-01 -0.000000e+00
    outer loop
      vertex   -2.621567e+00 -1.459313e+00 3.846832e+00
      vertex   -2.621567e+00 -1.459313e+00 3.153168e+00
      vertex   -2.611154e+00 -1.477349e+00 3.849021e+00
    endloop
  endfacet
  facet normal -8.660254e-01 -5.000000e-01 1.590480e-16
    outer loop
      vertex   -2.611154e+00 -1.477349e+00 3.849021e+00
      vertex   -2.621567e+00 -1.459313e+00 3.153168e+00
      vertex   -2.611154e+00 -1.477349e+00 3.150979e+00
    endloop
  endfacet
  facet normal -8.660254e-01 -5.000000e-01 1.590480e-16
    outer loop
      vertex   -2.611154e+00 -1.477349e+00 3.849021e+00
      vertex   -2.611154e+00 -1.477349e+00 3.150979e+00
      vertex   -2.600694e+00 -1.495466e+00 3.849961e+00
    endloop
  endfacet
  facet normal -8.660254e-01 -5.000000e-01 -5.494794e-16
    outer loop
      vertex   -2.600694e+00 -1.495466e+00 3.849961e+00
      vertex   -2.611154e+00 -1.477349e+00 3.150979e+00
      vertex   -2.600694e+00 -1.495466e+00 3.150039e+00
    endloop
  endfacet
  facet normal -8.660254e-01 -5.000000e-01 -5.494794e-16
    outer loop
      vertex   -2.600694e+00 -1.495466e+00 3.849961e+00
      vertex   -2.600694e+00 -1.495466e+00 3.150039e+00
      vertex   -2.590225e+00 -1.513599e+00 3.849648e+00
    endloop
  endfacet
  facet normal -8.660254e-01 -5.000000e-01 -0.000000e+00
    outer loop
      vertex   -2.590225e+00 -1.513599e+00 3.849648e+00
      vertex   -2.600694e+00 -1.495466e+00 3.150039e+00
      vertex   -2.590225e+00 -1.513599e+00 3.150352e+00
    endloop
  endfacet
  facet normal -8.660254e-01 -5.000000e-01 -0.000000e+00
    outer loop
      vertex   -2.590225e+00 -1.513599e+00 3.849648e+00
      vertex   -2.590225e+00 -1.513599e+00 3.150352e+00
      vertex   -2.579784e+00 -1.531684e+00 3.848083e+00
    endloop
  endfacet
  facet normal -8.660254e-01 -5.000000e-01 -0.000000e+00
    outer loop
      vertex   -2.579784e+00 -1.531684e+00 3.848083e+00
      vertex   -2.590225e+00 -1.513599e+00 3.150352e+00
      vertex   -2.579784e+00 -1.531684e+00 3.151917e+00
    endloop
  endfacet
  facet normal -8.660254e-01 -5.000000e-01 -0.000000e+00
    outer loop
      vertex   -2.579784e+00 -1.531684e+00 3.848083e+00
      vertex   -2.579784e+00 -1.531684e+00 3.151917e+00
      vertex   -2.569408e+00 -1.549655e+00 3.845272e+00
    endloop
  endfacet
  facet normal -8.660254e-01 -5.000000e-01 -0.000000e+00
    outer loop
      vertex   -2.569408e+00 -1.549655e+00 3.845272e+00
      vertex   -2.579784e+00 -1.531684e+00 3.151917e+00
      vertex   -2.569408e+00 -1.549655e+00 3.154728e+00
    endloop
  endfacet
  facet normal -8.660254e-01 -5.000000e-01 -0.000000e+00
    outer loop
      vertex   -2.569408e+00 -1.549655e+00 3.845272e+00
      vertex   -2.569408e+00 -1.549655e+00 3.154728e+00
      vertex   -2.559135e+00 -1.567448e+00 3.841225e+00
    endloop
  endfacet
  facet normal -8.660254e-01 -5.000000e-01 -0.000000e+00
    outer loop
      vertex   -2.559135e+00 -1.567448e+00 3.841225e+00
      vertex   -2.569408e+00 -1.549655e+00 3.154728e+00
      vertex   -2.559135e+00 -1.567448e+00 3.158775e+00
    endloop
  endfacet
  facet normal -8.660254e-01 -5.000000e-01 -0.000000e+00
    outer loop
      vertex   -2.559135e+00 -1.567448e+00 3.841225e+00
      vertex   -2.559135e+00 -1.567448e+00 3.158775e+00
      vertex   -2.549001e+00 -1.585000e+00 3.835956e+00
    endloop
  endfacet
  facet normal -8.660254e-01 -5.000000e-01 -5.723847e-16
    outer loop
      vertex   -2.549001e+00 -1.585000e+00 3.835956e+00
      vertex   -2.559135e+00 -1.567448e+00 3.158775e+00
      vertex   -2.549001e+00 -1.585000e+00 3.164044e+00
    endloop
  endfacet
  facet normal -8.660254e-01 -5.000000e-01 -5.723847e-16
    outer loop
      vertex   -2.549001e+00 -1.585000e+00 3.835956e+00
      vertex   -2.549001e+00 -1.585000e+00 3.164044e+00
      vertex   -2.539043e+00 -1.602248e+00 3.829485e+00
    endloop
  endfacet
  facet normal -8.660254e-01 -5.000000e-01 -4.151479e-16
    outer loop
      vertex   -2.539043e+00 -1.602248e+00 3.829485e+00
      vertex   -2.549001e+00 -1.585000e+00 3.164044e+00
      vertex   -2.539043e+00 -1.602248e+00 3.170515e+00
    endloop
  endfacet
  facet normal -8.660254e-01 -5.000000e-01 -4.151479e-16
    outer loop
      vertex   -2.539043e+00 -1.602248e+00 3.829485e+00
      vertex   -2.539043e+00 -1.602248e+00 3.170515e+00
      vertex   -2.529297e+00 -1.619129e+00 3.821835e+00
    endloop
  endfacet
  facet normal -8.660254e-01 -5.000000e-01 -0.000000e+00
    outer loop
      vertex   -2.529297e+00 -1.619129e+00 3.821835e+00
      vertex   -2.539043e+00 -1.602248e+00 3.170515e+00
      vertex   -2.529297e+00 -1.619129e+00 3.178165e+00
    endloop
  endfacet
  facet normal -8.660254e-01 -5.000000e-01 -0.000000e+00
    outer loop
      vertex   -2.529297e+00 -1.619129e+00 3.821835e+00
      vertex   -2.529297e+00 -1.619129e+00 3.178165e+00
      vertex   -2.519796e+00 -1.635585e+00 3.813032e+00
    endloop
  endfacet
  facet normal -8.660254e-01 -5.000000e-01 1.773337e-16
    outer loop
      vertex   -2.519796e+00 -1.635585e+00 3.813032e+00
      vertex   -2.529297e+00 -1.619129e+00 3.178165e+00
      vertex   -2.519796e+00 -1.635585e+00 3.186968e+00
    endloop
  endfacet
  facet normal -8.660254e-01 -5.000000e-01 1.773337e-16
    outer loop
      vertex   -2.519796e+00 -1.635585e+00 3.813032e+00
      vertex   -2.519796e+00 -1.635585e+00 3.186968e+00
      vertex   -2.510576e+00 -1.651554e+00 3.803109e+00
    endloop
  endfacet
  facet normal -8.660254e-01 -5.000000e-01 3.662786e-16
    outer loop
      vertex   -2.510576e+00 -1.651554e+00 3.803109e+00
      vertex   -2.519796e+00 -1.635585e+00 3.186968e+00
      vertex   -2.510576e+00 -1.651554e+00 3.196891e+00
    endloop
  endfacet
  facet normal -8.660254e-01 -5.000000e-01 3.662786e-16
    outer loop
      vertex   -2.510576e+00 -1.651554e+00 3.803109e+00
      vertex   -2.510576e+00 -1.651554e+00 3.196891e+00
      vertex   -2.501669e+00 -1.666982e+00 3.792101e+00
    endloop
  endfacet
  facet normal -8.660254e-01 -5.000000e-01 -0.000000e+00
    outer loop
      vertex   -2.501669e+00 -1.666982e+00 3.792101e+00
      vertex   -2.510576e+00 -1.651554e+00 3.196891e+00
      vertex   -2.501669e+00 -1.666982e+00 3.207899e+00
    endloop
  endfacet
  facet normal -8.660254e-01 -5.000000e-01 -0.000000e+00
    outer loop
      vertex   -2.501669e+00 -1.666982e+00 3.792101e+00
      vertex   -2.501669e+00 -1.666982e+00 3.207899e+00
      vertex   -2.493107e+00 -1.681811e+00 3.780047e+00
    endloop
  endfacet
  facet normal -8.660254e-01 -5.000000e-01 -0.000000e+00
    outer loop
      vertex   -2.493107e+00 -1.681811e+00 3.780047e+00
      vertex   -2.501669e+00 -1.666982e+00 3.207899e+00
      vertex   -2.493107e+00 -1.681811e+00 3.219953e+00
    endloop
  endfacet
  facet normal -8.660254e-01 -5.000000e-01 -0.000000e+00
    outer loop
      vertex   -2.493107e+00 -1.681811e+00 3.780047e+00
      vertex   -2.493107e+00 -1.681811e+00 3.219953e+00
      vertex   -2.484921e+00 -1.695990e+00 3.766990e+00
    endloop
  endfacet
  facet normal -8.660254e-01 -5.000000e-01 -0.000000e+00
    outer loop
      vertex   -2.484921e+00 -1.695990e+00 3.766990e+00
      vertex   -2.493107e+00 -1.681811e+00 3.219953e+00
      vertex   -2.484921e+00 -1.695990e+00 3.233010e+00
    endloop
  endfacet
  facet normal -8.660254e-01 -5.000000e-01 -0.000000e+00
    outer loop
      vertex   -2.484921e+00 -1.695990e+00 3.766990e+00
      vertex   -2.484921e+00 -1.695990e+00 3.233010e+00
      vertex   -2.477140e+00 -1.709467e+00 3.752978e+00
    endloop
  endfacet
  facet normal -8.660254e-01 -5.000000e-01 -0.000000e+00
    outer loop
      vertex   -2.477140e+00 -1.709467e+00 3.752978e+00
      vertex   -2.484921e+00 -1.695990e+00 3.233010e+00
      vertex   -2.477140e+00 -1.709467e+00 3.247022e+00
    endloop
  endfacet
  facet normal -8.660254e-01 -5.000000e-01 -0.000000e+00
    outer loop
      vertex   -2.477140e+00 -1.709467e+00 3.752978e+00
      vertex   -2.477140e+00 -1.709467e+00 3.247022e+00
      vertex   -2.469792e+00 -1.722195e+00 3.738060e+00
    endloop
  endfacet
  facet normal -8.660254e-01 -5.000000e-01 -0.000000e+00
    outer loop
      vertex   -2.469792e+00 -1.722195e+00 3.738060e+00
      vertex   -2.477140e+00 -1.709467e+00 3.247022e+00
      vertex   -2.469792e+00 -1.722195e+00 3.261940e+00
    endloop
  endfacet
  facet normal -8.660254e-01 -5.000000e-01 -0.000000e+00
    outer loop
      vertex   -2.469792e+00 -1.722195e+00 3.738060e+00
      vertex   -2.469792e+00 -1.722195e+00 3.261940e+00
      vertex   -2.462903e+00 -1.734126e+00 3.722291e+00
    endloop
  endfacet
  facet normal -8.660254e-01 -5.000000e-01 2.497234e-16
    outer loop
      vertex   -2.462903e+00 -1.734126e+00 3.722291e+00
      vertex   -2.469792e+00 -1.722195e+00 3.261940e+00
      vertex   -2.462903e+00 -1.734126e+00 3.277709e+00
    endloop
  endfacet
  facet normal -8.660254e-01 -5.000000e-01 2.497234e-16
    outer loop
      vertex   -2.462903e+00 -1.734126e+00 3.722291e+00
      vertex   -2.462903e+00 -1.734126e+00 3.277709e+00
      vertex   -2.456498e+00 -1.745220e+00 3.705725e+00
    endloop
  endfacet
  facet normal -8.660254e-01 -5.000000e-01 -0.000000e+00
    outer loop
      vertex   -2.456498e+00 -1.745220e+00 3.705725e+00
      vertex   -2.462903e+00 -1.734126e+00 3.277709e+00
      vertex   -2.456498e+00 -1.745220e+00 3.294275e+00
    endloop
  endfacet
  facet normal -8.660254e-01 -5.000000e-01 -0.000000e+00
    outer loop
      vertex   -2.456498e+00 -1.745220e+00 3.705725e+00
      vertex   -2.456498e+00 -1.745220e+00 3.294275e+00
      vertex   -2.450600e+00 -1.755436e+00 3.688423e+00
    endloop
  endfacet
  facet normal -8.660254e-01 -5.000000e-01 -0.000000e+00
    outer loop
      vertex   -2.450600e+00 -1.755436e+00 3.688423e+00
      vertex   -2.456498e+00 -1.745220e+00 3.294275e+00
      vertex   -2.450600e+00 -1.755436e+00 3.311577e+00
    endloop
  endfacet
  facet normal -8.660254e-01 -5.000000e-01 -0.000000e+00
    outer loop
      vertex   -2.450600e+00 -1.755436e+00 3.688423e+00
      vertex   -2.450600e+00 -1.755436e+00 3.311577e+00
      vertex   -2.445230e+00 -1.764738e+00 3.670446e+00
    endloop
  endfacet
  facet normal -8.660254e-01 -5.000000e-01 -0.000000e+00
    outer loop
      vertex   -2.445230e+00 -1.764738e+00 3.670446e+00
      vertex   -2.450600e+00 -1.755436e+00 3.311577e+00
      vertex   -2.445230e+00 -1.764738e+00 3.329554e+00
    endloop
  endfacet
  facet normal -8.660254e-01 -5.000000e-01 -0.000000e+00
    outer loop
      vertex   -2.445230e+00 -1.764738e+00 3.670446e+00
      vertex   -2.445230e+00 -1.764738e+00 3.329554e+00
      vertex   -2.440407e+00 -1.773092e+00 3.651859e+00
    endloop
  endfacet
  facet normal -8.660254e-01 -5.000000e-01 -0.000000e+00
    outer loop
      vertex   -2.440407e+00 -1.773092e+00 3.651859e+00
      vertex   -2.445230e+00 -1.764738e+00 3.329554e+00
      vertex   -2.440407e+00 -1.773092e+00 3.348141e+00
    endloop
  endfacet
  facet normal -8.660254e-01 -5.000000e-01 -0.000000e+00
    outer loop
      vertex   -2.440407e+00 -1.773092e+00 3.651859e+00
      vertex   -2.440407e+00 -1.773092e+00 3.348141e+00
      vertex   -2.436148e+00 -1.780468e+00 3.632729e+00
    endloop
  endfacet
  facet normal -8.660254e-01 -5.000000e-01 -0.000000e+00
    outer loop
      vertex   -2.436148e+00 -1.780468e+00 3.632729e+00
      vertex   -2.440407e+00 -1.773092e+00 3.348141e+00
      vertex   -2.436148e+00 -1.780468e+00 3.367271e+00
    endloop
  endfacet
  facet normal -8.660254e-01 -5.000000e-01 -0.000000e+00
    outer loop
      vertex   -2.436148e+00 -1.780468e+00 3.632729e+00
      vertex   -2.436148e+00 -1.780468e+00 3.367271e+00
      vertex   -2.432469e+00 -1.786840e+00 3.613123e+00
    endloop
  endfacet
  facet normal -8.660254e-01 -5.000000e-01 -0.000000e+00
    outer loop
      vertex   -2.432469e+00 -1.786840e+00 3.613123e+00
      vertex   -2.436148e+00 -1.780468e+00 3.367271e+00
      vertex   -2.432469e+00 -1.786840e+00 3.386877e+00
    endloop
  endfacet
  facet normal -8.660254e-01 -5.000000e-01 -0.000000e+00
    outer loop
      vertex   -2.432469e+00 -1.786840e+00 3.613123e+00
      vertex   -2.432469e+00 -1.786840e+00 3.386877e+00
      vertex   -2.429383e+00 -1.792186e+00 3.593113e+00
    endloop
  endfacet
  facet normal -8.660254e-01 -5.000000e-01 -0.000000e+00
    outer loop
      vertex   -2.429383e+00 -1.792186e+00 3.593113e+00
      vertex   -2.432469e+00 -1.786840e+00 3.386877e+00
      vertex   -2.429383e+00 -1.792186e+00 3.406887e+00
    endloop
  endfacet
  facet normal -8.660254e-01 -5.000000e-01 -0.000000e+00
    outer loop
      vertex   -2.429383e+00 -1.792186e+00 3.593113e+00
      vertex   -2.429383e+00 -1.792186e+00 3.406887e+00
      vertex   -2.426900e+00 -1.796485e+00 3.572769e+00
    endloop
  endfacet
  facet normal -8.660254e-01 -5.000000e-01 -0.000000e+00
    outer loop
      vertex   -2.426900e+00 -1.796485e+00 3.572769e+00
      vertex   -2.429383e+00 -1.792186e+00 3.406887e+00
      vertex   -2.426900e+00 -1.796485e+00 3.427231e+00
    endloop
  endfacet
  facet normal -8.660254e-01 -5.000000e-01 -0.000000e+00
    outer loop
      vertex   -2.426900e+00 -1.796485e+00 3.572769e+00
      vertex   -2.426900e+00 -1.796485e+00 3.427231e+00
      vertex   -2.425031e+00 -1.799723e+00 3.552165e+00
    endloop
  endfacet
  facet normal -8.660254e-01 -5.000000e-01 1.064150e-15
    outer loop
      vertex   -2.425031e+00 -1.799723e+00 3.552165e+00
      vertex   -2.426900e+00 -1.796485e+00 3.427231e+00
      vertex   -2.425031e+00 -1.799723e+00 3.447835e+00
    endloop
  endfacet
  facet normal -8.660254e-01 -5.000000e-01 1.064150e-15
    outer loop
      vertex   -2.425031e+00 -1.799723e+00 3.552165e+00
      vertex   -2.425031e+00 -1.799723e+00 3.447835e+00
      vertex   -2.423781e+00 -1.801889e+00 3.531374e+00
    endloop
  endfacet
  facet normal -8.660254e-01 -5.000000e-01 -0.000000e+00
    outer loop
      vertex   -2.423781e+00 -1.801889e+00 3.531374e+00
      vertex   -2.425031e+00 -1.799723e+00 3.447835e+00
      vertex   -2.423781e+00 -1.801889e+00 3.468626e+00
    endloop
  endfacet
  facet normal -8.660254e-01 -5.000000e-01 -0.000000e+00
    outer loop
      vertex   -2.423781e+00 -1.801889e+00 3.531374e+00
      vertex   -2.423781e+00 -1.801889e+00 3.468626e+00
      vertex   -2.423155e+00 -1.802973e+00 3.510470e+00
    endloop
  endfacet
  facet normal -8.660254e-01 -5.000000e-01 -0.000000e+00
    outer loop
      vertex   -2.423155e+00 -1.802973e+00 3.510470e+00
      vertex   -2.423781e+00 -1.801889e+00 3.468626e+00
      vertex   -2.423155e+00 -1.802973e+00 3.489530e+00
    endloop
  endfacet
endsolid
