solid outlet5
  facet normal 8.660254e-01 -5.000000e-01 0.000000e+00
    outer loop
      vertex   2.423076e+00 -1.803109e+00 3.500000e+00
      vertex   2.423389e+00 -1.802566e+00 3.479069e+00
      vertex   2.423389e+00 -1.802566e+00 3.520931e+00
    endloop
  endfacet
  facet normal 8.660254e-01 -5.000000e-01 0.000000e+00
    outer loop
      vertex   2.423389e+00 -1.802566e+00 3.520931e+00
      vertex   2.423389e+00 -1.802566e+00 3.479069e+00
      vertex   2.424328e+00 -1.800941e+00 3.541788e+00
    endloop
  endfacet
  facet normal 8.660254e-01 -5.000000e-01 0.000000e+00
    outer loop
      vertex   2.424328e+00 -1.800941e+00 3.541788e+00
      vertex   2.423389e+00 -1.802566e+00 3.479069e+00
      vertex   2.424328e+00 -1.800941e+00 3.458212e+00
    endloop
  endfacet
  facet normal 8.660254e-01 -5.000000e-01 0.000000e+00
    outer loop
      vertex   2.424328e+00 -1.800941e+00 3.541788e+00
      vertex   2.424328e+00 -1.800941e+00 3.458212e+00
      vertex   2.425889e+00 -1.798238e+00 3.562495e+00
    endloop
  endfacet
  facet normal 8.660254e-01 -5.000000e-01 0.000000e+00
    outer loop
      vertex   2.425889e+00 -1.798238e+00 3.562495e+00
      vertex   2.424328e+00 -1.800941e+00 3.458212e+00
      vertex   2.425889e+00 -1.798238e+00 3.437505e+00
    endloop
  endfacet
  facet normal 8.660254e-01 -5.000000e-01 0.000000e+00
    outer loop
      vertex   2.425889e+00 -1.798238e+00 3.562495e+00
      vertex   2.425889e+00 -1.798238e+00 3.437505e+00
      vertex   2.428065e+00 -1.794467e+00 3.582978e+00
    endloop
  endfacet
  facet normal 8.660254e-01 -5.000000e-01 -6.689853e-16
    outer loop
      vertex   2.428065e+00 -1.794467e+00 3.582978e+00
      vertex   2.425889e+00 -1.798238e+00 3.437505e+00
      vertex   2.428065e+00 -1.794467e+00 3.417022e+00
    endloop
  endfacet
  facet normal 8.660254e-01 -5.000000e-01 -6.689853e-16
    outer loop
      vertex   2.428065e+00 -1.794467e+00 3.582978e+00
      vertex   2.428065e+00 -1.794467e+00 3.417022e+00
      vertex   2.430851e+00 -1.789643e+00 3.603164e+00
    endloop
  endfacet
  facet normal 8.660254e-01 -5.000000e-01 0.000000e+00
    outer loop
      vertex   2.430851e+00 -1.789643e+00 3.603164e+00
      vertex   2.428065e+00 -1.794467e+00 3.417022e+00
      vertex   2.430851e+00 -1.789643e+00 3.396836e+00
    endloop
  endfacet
  facet normal 8.660254e-01 -5.000000e-01 0.000000e+00
    outer loop
      vertex   2.430851e+00 -1.789643e+00 3.603164e+00
      vertex   2.430851e+00 -1.789643e+00 3.396836e+00
      vertex   2.434235e+00 -1.783781e+00 3.622981e+00
    endloop
  endfacet
  facet normal 8.660254e-01 -5.000000e-01 0.000000e+00
    outer loop
      vertex   2.434235e+00 -1.783781e+00 3.622981e+00
      vertex   2.430851e+00 -1.789643e+00 3.396836e+00
      vertex   2.434235e+00 -1.783781e+00 3.377019e+00
    endloop
  endfacet
  facet normal 8.660254e-01 -5.000000e-01 0.000000e+00
    outer loop
      vertex   2.434235e+00 -1.783781e+00 3.622981e+00
      vertex   2.434235e+00 -1.783781e+00 3.377019e+00
      vertex   2.438206e+00 -1.776904e+00 3.642358e+00
    endloop
  endfacet
  facet normal 8.660254e-01 -5.000000e-01 0.000000e+00
    outer loop
      vertex   2.438206e+00 -1.776904e+00 3.642358e+00
      vertex   2.434235e+00 -1.783781e+00 3.377019e+00
      vertex   2.438206e+00 -1.776904e+00 3.357642e+00
    endloop
  endfacet
  facet normal 8.660254e-01 -5.000000e-01 0.000000e+00
    outer loop
      vertex   2.438206e+00 -1.776904e+00 3.642358e+00
      vertex   2.438206e+00 -1.776904e+00 3.357642e+00
      vertex   2.442749e+00 -1.769035e+00 3.661225e+00
    endloop
  endfacet
  facet normal 8.660254e-01 -5.000000e-01 0.000000e+00
    outer loop
      vertex   2.442749e+00 -1.769035e+00 3.661225e+00
      vertex   2.438206e+00 -1.776904e+00 3.357642e+00
      vertex   2.442749e+00 -1.769035e+00 3.338775e+00
    endloop
  endfacet
  facet normal 8.660254e-01 -5.000000e-01 0.000000e+00
    outer loop
      vertex   2.442749e+00 -1.769035e+00 3.661225e+00
      vertex   2.442749e+00 -1.769035e+00 3.338775e+00
      vertex   2.447848e+00 -1.760203e+00 3.679515e+00
    endloop
  endfacet
  facet normal 8.660254e-01 -5.000000e-01 0.000000e+00
    outer loop
      vertex   2.447848e+00 -1.760203e+00 3.679515e+00
      vertex   2.442749e+00 -1.769035e+00 3.338775e+00
      vertex   2.447848e+00 -1.760203e+00 3.320485e+00
    endloop
  endfacet
  facet normal 8.660254e-01 -5.000000e-01 0.000000e+00
    outer loop
      vertex   2.447848e+00 -1.760203e+00 3.679515e+00
      vertex   2.447848e+00 -1.760203e+00 3.320485e+00
      vertex   2.453484e+00 -1.750440e+00 3.697162e+00
    endloop
  endfacet
  facet normal 8.660254e-01 -5.000000e-01 -5.631019e-16
    outer loop
      vertex   2.453484e+00 -1.750440e+00 3.697162e+00
      vertex   2.447848e+00 -1.760203e+00 3.320485e+00
      vertex   2.453484e+00 -1.750440e+00 3.302838e+00
    endloop
  endfacet
  facet normal 8.660254e-01 -5.000000e-01 -5.631019e-16
    outer loop
      vertex   2.453484e+00 -1.750440e+00 3.697162e+00
      vertex   2.453484e+00 -1.750440e+00 3.302838e+00
      vertex   2.459639e+00 -1.739781e+00 3.714104e+00
    endloop
  endfacet
  facet normal 8.660254e-01 -5.000000e-01 -2.592725e-16
    outer loop
      vertex   2.459639e+00 -1.739781e+00 3.714104e+00
      vertex   2.453484e+00 -1.750440e+00 3.302838e+00
      vertex   2.459639e+00 -1.739781e+00 3.285896e+00
    endloop
  endfacet
  facet normal 8.660254e-01 -5.000000e-01 -2.592725e-16
    outer loop
      vertex   2.459639e+00 -1.739781e+00 3.714104e+00
      vertex   2.459639e+00 -1.739781e+00 3.285896e+00
      vertex   2.466289e+00 -1.728263e+00 3.730279e+00
    endloop
  endfacet
  facet normal 8.660254e-01 -5.000000e-01 0.000000e+00
    outer loop
      vertex   2.466289e+00 -1.728263e+00 3.730279e+00
      vertex   2.459639e+00 -1.739781e+00 3.285896e+00
      vertex   2.466289e+00 -1.728263e+00 3.269721e+00
    endloop
  endfacet
  facet normal 8.660254e-01 -5.000000e-01 0.000000e+00
    outer loop
      vertex   2.466289e+00 -1.728263e+00 3.730279e+00
      vertex   2.466289e+00 -1.728263e+00 3.269721e+00
      vertex   2.473410e+00 -1.715928e+00 3.745629e+00
    endloop
  endfacet
  facet normal 8.660254e-01 -5.000000e-01 0.000000e+00
    outer loop
      vertex   2.473410e+00 -1.715928e+00 3.745629e+00
      vertex   2.466289e+00 -1.728263e+00 3.269721e+00
      vertex   2.473410e+00 -1.715928e+00 3.254371e+00
    endloop
  endfacet
  facet normal 8.660254e-01 -5.000000e-01 0.000000e+00
    outer loop
      vertex   2.473410e+00 -1.715928e+00 3.745629e+00
      vertex   2.473410e+00 -1.715928e+00 3.254371e+00
      vertex   2.480978e+00 -1.702819e+00 3.760101e+00
    endloop
  endfacet
  facet normal 8.660254e-01 -5.000000e-01 -2.134218e-16
    outer loop
      vertex   2.480978e+00 -1.702819e+00 3.760101e+00
      vertex   2.473410e+00 -1.715928e+00 3.254371e+00
      vertex   2.480978e+00 -1.702819e+00 3.239899e+00
    endloop
  endfacet
  facet normal 8.660254e-01 -5.000000e-01 -2.134218e-16
    outer loop
      vertex   2.480978e+00 -1.702819e+00 3.760101e+00
      vertex   2.480978e+00 -1.702819e+00 3.239899e+00
      vertex   2.488965e+00 -1.688985e+00 3.773641e+00
    endloop
  endfacet
  facet normal 8.660254e-01 -5.000000e-01 0.000000e+00
    outer loop
      vertex   2.488965e+00 -1.688985e+00 3.773641e+00
      vertex   2.480978e+00 -1.702819e+00 3.239899e+00
      vertex   2.488965e+00 -1.688985e+00 3.226359e+00
    endloop
  endfacet
  facet normal 8.660254e-01 -5.000000e-01 0.000000e+00
    outer loop
      vertex   2.488965e+00 -1.688985e+00 3.773641e+00
      vertex   2.488965e+00 -1.688985e+00 3.226359e+00
      vertex   2.497343e+00 -1.674475e+00 3.786202e+00
    endloop
  endfacet
  facet normal 8.660254e-01 -5.000000e-01 0.000000e+00
    outer loop
      vertex   2.497343e+00 -1.674475e+00 3.786202e+00
      vertex   2.488965e+00 -1.688985e+00 3.226359e+00
      vertex   2.497343e+00 -1.674475e+00 3.213798e+00
    endloop
  endfacet
  facet normal 8.660254e-01 -5.000000e-01 0.000000e+00
    outer loop
      vertex   2.497343e+00 -1.674475e+00 3.786202e+00
      vertex   2.497343e+00 -1.674475e+00 3.213798e+00
      vertex   2.506082e+00 -1.659339e+00 3.797738e+00
    endloop
  endfacet
  facet normal 8.660254e-01 -5.000000e-01 -1.864429e-16
    outer loop
      vertex   2.506082e+00 -1.659339e+00 3.797738e+00
      vertex   2.497343e+00 -1.674475e+00 3.213798e+00
      vertex   2.506082e+00 -1.659339e+00 3.202262e+00
    endloop
  endfacet
  facet normal 8.660254e-01 -5.000000e-01 -1.864429e-16
    outer loop
      vertex   2.506082e+00 -1.659339e+00 3.797738e+00
      vertex   2.506082e+00 -1.659339e+00 3.202262e+00
      vertex   2.515149e+00 -1.643634e+00 3.808208e+00
    endloop
  endfacet
  facet normal 8.660254e-01 -5.000000e-01 0.000000e+00
    outer loop
      vertex   2.515149e+00 -1.643634e+00 3.808208e+00
      vertex   2.506082e+00 -1.659339e+00 3.202262e+00
      vertex   2.515149e+00 -1.643634e+00 3.191792e+00
    endloop
  endfacet
  facet normal 8.660254e-01 -5.000000e-01 0.000000e+00
    outer loop
      vertex   2.515149e+00 -1.643634e+00 3.808208e+00
      vertex   2.515149e+00 -1.643634e+00 3.191792e+00
      vertex   2.524514e+00 -1.627414e+00 3.817576e+00
    endloop
  endfacet
  facet normal 8.660254e-01 -5.000000e-01 -1.747967e-16
    outer loop
      vertex   2.524514e+00 -1.627414e+00 3.817576e+00
      vertex   2.515149e+00 -1.643634e+00 3.191792e+00
      vertex   2.524514e+00 -1.627414e+00 3.182424e+00
    endloop
  endfacet
  facet normal 8.660254e-01 -5.000000e-01 -1.747967e-16
    outer loop
      vertex   2.524514e+00 -1.627414e+00 3.817576e+00
      vertex   2.524514e+00 -1.627414e+00 3.182424e+00
      vertex   2.534142e+00 -1.610738e+00 3.825806e+00
    endloop
  endfacet
  facet normal 8.660254e-01 -5.000000e-01 0.000000e+00
    outer loop
      vertex   2.534142e+00 -1.610738e+00 3.825806e+00
      vertex   2.524514e+00 -1.627414e+00 3.182424e+00
      vertex   2.534142e+00 -1.610738e+00 3.174194e+00
    endloop
  endfacet
  facet normal 8.660254e-01 -5.000000e-01 0.000000e+00
    outer loop
      vertex   2.534142e+00 -1.610738e+00 3.825806e+00
      vertex   2.534142e+00 -1.610738e+00 3.174194e+00
      vertex   2.543998e+00 -1.593666e+00 3.832870e+00
    endloop
  endfacet
  facet normal 8.660254e-01 -5.000000e-01 0.000000e+00
    outer loop
      vertex   2.543998e+00 -1.593666e+00 3.832870e+00
      vertex   2.534142e+00 -1.610738e+00 3.174194e+00
      vertex   2.543998e+00 -1.593666e+00 3.167130e+00
    endloop
  endfacet
  facet normal 8.660254e-01 -5.000000e-01 0.000000e+00
    outer loop
      vertex   2.543998e+00 -1.593666e+00 3.832870e+00
      vertex   2.543998e+00 -1.593666e+00 3.167130e+00
      vertex   2.554049e+00 -1.576258e+00 3.838742e+00
    endloop
  endfacet
  facet normal 8.660254e-01 -5.000000e-01 5.676774e-16
    outer loop
      vertex   2.554049e+00 -1.576258e+00 3.838742e+00
      vertex   2.543998e+00 -1.593666e+00 3.167130e+00
      vertex   2.554049e+00 -1.576258e+00 3.161258e+00
    endloop
  endfacet
  facet normal 8.660254e-01 -5.000000e-01 5.676774e-16
    outer loop
      vertex   2.554049e+00 -1.576258e+00 3.838742e+00
      vertex   2.554049e+00 -1.576258e+00 3.161258e+00
      vertex   2.564256e+00 -1.558578e+00 3.843402e+00
    endloop
  endfacet
  facet normal 8.660254e-01 -5.000000e-01 3.983237e-16
    outer loop
      vertex   2.564256e+00 -1.558578e+00 3.843402e+00
      vertex   2.554049e+00 -1.576258e+00 3.161258e+00
      vertex   2.564256e+00 -1.558578e+00 3.156598e+00
    endloop
  endfacet
  facet normal 8.660254e-01 -5.000000e-01 3.983237e-16
    outer loop
      vertex   2.564256e+00 -1.558578e+00 3.843402e+00
      vertex   2.564256e+00 -1.558578e+00 3.156598e+00
      vertex   2.574585e+00 -1.540687e+00 3.846832e+00
    endloop
  endfacet
  facet normal 8.660254e-01 -5.000000e-01 0.000000e+00
    outer loop
      vertex   2.574585e+00 -1.540687e+00 3.846832e+00
      vertex   2.564256e+00 -1.558578e+00 3.156598e+00
      vertex   2.574585e+00 -1.540687e+00 3.153168e+00
    endloop
  endfacet
  facet normal 8.660254e-01 -5.000000e-01 0.000000e+00
    outer loop
      vertex   2.574585e+00 -1.540687e+00 3.846832e+00
      vertex   2.574585e+00 -1.540687e+00 3.153168e+00
      vertex   2.584998e+00 -1.522651e+00 3.849021e+00
    endloop
  endfacet
  facet normal 8.660254e-01 -5.000000e-01 -1.590480e-16
    outer loop
      vertex   2.584998e+00 -1.522651e+00 3.849021e+00
      vertex   2.574585e+00 -1.540687e+00 3.153168e+00
      vertex   2.584998e+00 -1.522651e+00 3.150979e+00
    endloop
  endfacet
  facet normal 8.660254e-01 -5.000000e-01 -1.590480e-16
    outer loop
      vertex   2.584998e+00 -1.522651e+00 3.849021e+00
      vertex   2.584998e+00 -1.522651e+00 3.150979e+00
      vertex   2.595458e+00 -1.504534e+00 3.849961e+00
    endloop
  endfacet
  facet normal 8.660254e-01 -5.000000e-01 0.000000e+00
    outer loop
      vertex   2.595458e+00 -1.504534e+00 3.849961e+00
      vertex   2.584998e+00 -1.522651e+00 3.150979e+00
      vertex   2.595458e+00 -1.504534e+00 3.150039e+00
    endloop
  endfacet
  facet normal 8.660254e-01 -5.000000e-01 0.000000e+00
    outer loop
      vertex   2.595458e+00 -1.504534e+00 3.849961e+00
      vertex   2.595458e+00 -1.504534e+00 3.150039e+00
      vertex   2.605928e+00 -1.486401e+00 3.849648e+00
    endloop
  endfacet
  facet normal 8.660254e-01 -5.000000e-01 0.000000e+00
    outer loop
      vertex   2.605928e+00 -1.486401e+00 3.849648e+00
      vertex   2.595458e+00 -1.504534e+00 3.150039e+00
      vertex   2.605928e+00 -1.486401e+00 3.150352e+00
    endloop
  endfacet
  facet normal 8.660254e-01 -5.000000e-01 0.000000e+00
    outer loop
      vertex   2.605928e+00 -1.486401e+00 3.849648e+00
      vertex   2.605928e+00 -1.486401e+00 3.150352e+00
      vertex   2.616369e+00 -1.468316e+00 3.848083e+00
    endloop
  endfacet
  facet normal 8.660254e-01 -5.000000e-01 0.000000e+00
    outer loop
      vertex   2.616369e+00 -1.468316e+00 3.848083e+00
      vertex   2.605928e+00 -1.486401e+00 3.150352e+00
      vertex   2.616369e+00 -1.468316e+00 3.151917e+00
    endloop
  endfacet
  facet normal 8.660254e-01 -5.000000e-01 0.000000e+00
    outer loop
      vertex   2.616369e+00 -1.468316e+00 3.848083e+00
      vertex   2.616369e+00 -1.468316e+00 3.151917e+00
      vertex   2.626744e+00 -1.450345e+00 3.845272e+00
    endloop
  endfacet
  facet normal 8.660254e-01 -5.000000e-01 0.000000e+00
    outer loop
      vertex   2.626744e+00 -1.450345e+00 3.845272e+00
      vertex   2.616369e+00 -1.468316e+00 3.151917e+00
      vertex   2.626744e+00 -1.450345e+00 3.154728e+00
    endloop
  endfacet
  facet normal 8.660254e-01 -5.000000e-01 0.000000e+00
    outer loop
      vertex   2.626744e+00 -1.450345e+00 3.845272e+00
      vertex   2.626744e+00 -1.450345e+00 3.154728e+00
      vertex   2.637017e+00 -1.432552e+00 3.841225e+00
    endloop
  endfacet
  facet normal 8.660254e-01 -5.000000e-01 0.000000e+00
    outer loop
      vertex   2.637017e+00 -1.432552e+00 3.841225e+00
      vertex   2.626744e+00 -1.450345e+00 3.154728e+00
      vertex   2.637017e+00 -1.432552e+00 3.158775e+00
    endloop
  endfacet
  facet normal 8.660254e-01 -5.000000e-01 0.000000e+00
    outer loop
      vertex   2.637017e+00 -1.432552e+00 3.841225e+00
      vertex   2.637017e+00 -1.432552e+00 3.158775e+00
      vertex   2.647151e+00 -1.415000e+00 3.835956e+00
    endloop
  endfacet
  facet normal 8.660254e-01 -5.000000e-01 0.000000e+00
    outer loop
      vertex   2.647151e+00 -1.415000e+00 3.835956e+00
      vertex   2.637017e+00 -1.432552e+00 3.158775e+00
      vertex   2.647151e+00 -1.415000e+00 3.164044e+00
    endloop
  endfacet
  facet normal 8.660254e-01 -5.000000e-01 0.000000e+00
    outer loop
      vertex   2.647151e+00 -1.415000e+00 3.835956e+00
      vertex   2.647151e+00 -1.415000e+00 3.164044e+00
      vertex   2.657109e+00 -1.397752e+00 3.829485e+00
    endloop
  endfacet
  facet normal 8.660254e-01 -5.000000e-01 -3.369568e-16
    outer loop
      vertex   2.657109e+00 -1.397752e+00 3.829485e+00
      vertex   2.647151e+00 -1.415000e+00 3.164044e+00
      vertex   2.657109e+00 -1.397752e+00 3.170515e+00
    endloop
  endfacet
  facet normal 8.660254e-01 -5.000000e-01 -3.369568e-16
    outer loop
      vertex   2.657109e+00 -1.397752e+00 3.829485e+00
      vertex   2.657109e+00 -1.397752e+00 3.170515e+00
      vertex   2.666856e+00 -1.380871e+00 3.821835e+00
    endloop
  endfacet
  facet normal 8.660254e-01 -5.000000e-01 0.000000e+00
    outer loop
      vertex   2.666856e+00 -1.380871e+00 3.821835e+00
      vertex   2.657109e+00 -1.397752e+00 3.170515e+00
      vertex   2.666856e+00 -1.380871e+00 3.178165e+00
    endloop
  endfacet
  facet normal 8.660254e-01 -5.000000e-01 0.000000e+00
    outer loop
      vertex   2.666856e+00 -1.380871e+00 3.821835e+00
      vertex   2.666856e+00 -1.380871e+00 3.178165e+00
      vertex   2.676356e+00 -1.364415e+00 3.813032e+00
    endloop
  endfacet
  facet normal 8.660254e-01 -5.000000e-01 -1.773337e-16
    outer loop
      vertex   2.676356e+00 -1.364415e+00 3.813032e+00
      vertex   2.666856e+00 -1.380871e+00 3.178165e+00
      vertex   2.676356e+00 -1.364415e+00 3.186968e+00
    endloop
  endfacet
  facet normal 8.660254e-01 -5.000000e-01 -1.773337e-16
    outer loop
      vertex   2.676356e+00 -1.364415e+00 3.813032e+00
      vertex   2.676356e+00 -1.364415e+00 3.186968e+00
      vertex   2.685576e+00 -1.348446e+00 3.803109e+00
    endloop
  endfacet
  facet normal 8.660254e-01 -5.000000e-01 -3.662786e-16
    outer loop
      vertex   2.685576e+00 -1.348446e+00 3.803109e+00
      vertex   2.676356e+00 -1.364415e+00 3.186968e+00
      vertex   2.685576e+00 -1.348446e+00 3.196891e+00
    endloop
  endfacet
  facet normal 8.660254e-01 -5.000000e-01 -3.662786e-16
    outer loop
      vertex   2.685576e+00 -1.348446e+00 3.803109e+00
      vertex   2.685576e+00 -1.348446e+00 3.196891e+00
      vertex   2.694483e+00 -1.333018e+00 3.792101e+00
    endloop
  endfacet
  facet normal 8.660254e-01 -5.000000e-01 0.000000e+00
    outer loop
      vertex   2.694483e+00 -1.333018e+00 3.792101e+00
      vertex   2.685576e+00 -1.348446e+00 3.196891e+00
      vertex   2.694483e+00 -1.333018e+00 3.207899e+00
    endloop
  endfacet
  facet normal 8.660254e-01 -5.000000e-01 0.000000e+00
    outer loop
      vertex   2.694483e+00 -1.333018e+00 3.792101e+00
      vertex   2.694483e+00 -1.333018e+00 3.207899e+00
      vertex   2.703045e+00 -1.318189e+00 3.780047e+00
    endloop
  endfacet
  facet normal 8.660254e-01 -5.000000e-01 0.000000e+00
    outer loop
      vertex   2.703045e+00 -1.318189e+00 3.780047e+00
      vertex   2.694483e+00 -1.333018e+00 3.207899e+00
      vertex   2.703045e+00 -1.318189e+00 3.219953e+00
    endloop
  endfacet
  facet normal 8.660254e-01 -5.000000e-01 0.000000e+00
    outer loop
      vertex   2.703045e+00 -1.318189e+00 3.780047e+00
      vertex   2.703045e+00 -1.318189e+00 3.219953e+00
      vertex   2.711231e+00 -1.304010e+00 3.766990e+00
    endloop
  endfacet
  facet normal 8.660254e-01 -5.000000e-01 -2.079144e-16
    outer loop
      vertex   2.711231e+00 -1.304010e+00 3.766990e+00
      vertex   2.703045e+00 -1.318189e+00 3.219953e+00
      vertex   2.711231e+00 -1.304010e+00 3.233010e+00
    endloop
  endfacet
  facet normal 8.660254e-01 -5.000000e-01 -2.079144e-16
    outer loop
      vertex   2.711231e+00 -1.304010e+00 3.766990e+00
      vertex   2.711231e+00 -1.304010e+00 3.233010e+00
      vertex   2.719012e+00 -1.290533e+00 3.752978e+00
    endloop
  endfacet
  facet normal 8.660254e-01 -5.000000e-01 0.000000e+00
    outer loop
      vertex   2.719012e+00 -1.290533e+00 3.752978e+00
      vertex   2.711231e+00 -1.304010e+00 3.233010e+00
      vertex   2.719012e+00 -1.290533e+00 3.247022e+00
    endloop
  endfacet
  facet normal 8.660254e-01 -5.000000e-01 0.000000e+00
    outer loop
      vertex   2.719012e+00 -1.290533e+00 3.752978e+00
      vertex   2.719012e+00 -1.290533e+00 3.247022e+00
      vertex   2.726360e+00 -1.277805e+00 3.738060e+00
    endloop
  endfacet
  facet normal 8.660254e-01 -5.000000e-01 -2.331809e-16
    outer loop
      vertex   2.726360e+00 -1.277805e+00 3.738060e+00
      vertex   2.719012e+00 -1.290533e+00 3.247022e+00
      vertex   2.726360e+00 -1.277805e+00 3.261940e+00
    endloop
  endfacet
  facet normal 8.660254e-01 -5.000000e-01 -2.331809e-16
    outer loop
      vertex   2.726360e+00 -1.277805e+00 3.738060e+00
      vertex   2.726360e+00 -1.277805e+00 3.261940e+00
      vertex   2.733249e+00 -1.265874e+00 3.722291e+00
    endloop
  endfacet
  facet normal 8.660254e-01 -5.000000e-01 0.000000e+00
    outer loop
      vertex   2.733249e+00 -1.265874e+00 3.722291e+00
      vertex   2.726360e+00 -1.277805e+00 3.261940e+00
      vertex   2.733249e+00 -1.265874e+00 3.277709e+00
    endloop
  endfacet
  facet normal 8.660254e-01 -5.000000e-01 0.000000e+00
    outer loop
      vertex   2.733249e+00 -1.265874e+00 3.722291e+00
      vertex   2.733249e+00 -1.265874e+00 3.277709e+00
      vertex   2.739654e+00 -1.254780e+00 3.705725e+00
    endloop
  endfacet
  facet normal 8.660254e-01 -5.000000e-01 0.000000e+00
    outer loop
      vertex   2.739654e+00 -1.254780e+00 3.705725e+00
      vertex   2.733249e+00 -1.265874e+00 3.277709e+00
      vertex   2.739654e+00 -1.254780e+00 3.294275e+00
    endloop
  endfacet
  facet normal 8.660254e-01 -5.000000e-01 0.000000e+00
    outer loop
      vertex   2.739654e+00 -1.254780e+00 3.705725e+00
      vertex   2.739654e+00 -1.254780e+00 3.294275e+00
      vertex   2.745552e+00 -1.244564e+00 3.688423e+00
    endloop
  endfacet
  facet normal 8.660254e-01 -5.000000e-01 0.000000e+00
    outer loop
      vertex   2.745552e+00 -1.244564e+00 3.688423e+00
      vertex   2.739654e+00 -1.254780e+00 3.294275e+00
      vertex   2.745552e+00 -1.244564e+00 3.311577e+00
    endloop
  endfacet
  facet normal 8.660254e-01 -5.000000e-01 0.000000e+00
    outer loop
      vertex   2.745552e+00 -1.244564e+00 3.688423e+00
      vertex   2.745552e+00 -1.244564e+00 3.311577e+00
      vertex   2.750923e+00 -1.235262e+00 3.670446e+00
    endloop
  endfacet
  facet normal 8.660254e-01 -5.000000e-01 0.000000e+00
    outer loop
      vertex   2.750923e+00 -1.235262e+00 3.670446e+00
      vertex   2.745552e+00 -1.244564e+00 3.311577e+00
      vertex   2.750923e+00 -1.235262e+00 3.329554e+00
    endloop
  endfacet
  facet normal 8.660254e-01 -5.000000e-01 0.000000e+00
    outer loop
      vertex   2.750923e+00 -1.235262e+00 3.670446e+00
      vertex   2.750923e+00 -1.235262e+00 3.329554e+00
      vertex   2.755746e+00 -1.226908e+00 3.651859e+00
    endloop
  endfacet
  facet normal 8.660254e-01 -5.000000e-01 0.000000e+00
    outer loop
      vertex   2.755746e+00 -1.226908e+00 3.651859e+00
      vertex   2.750923e+00 -1.235262e+00 3.329554e+00
      vertex   2.755746e+00 -1.226908e+00 3.348141e+00
    endloop
  endfacet
  facet normal 8.660254e-01 -5.000000e-01 0.000000e+00
    outer loop
      vertex   2.755746e+00 -1.226908e+00 3.651859e+00
      vertex   2.755746e+00 -1.226908e+00 3.348141e+00
      vertex   2.760004e+00 -1.219532e+00 3.632729e+00
    endloop
  endfacet
  facet normal 8.660254e-01 -5.000000e-01 0.000000e+00
    outer loop
      vertex   2.760004e+00 -1.219532e+00 3.632729e+00
      vertex   2.755746e+00 -1.226908e+00 3.348141e+00
      vertex   2.760004e+00 -1.219532e+00 3.367271e+00
    endloop
  endfacet
  facet normal 8.660254e-01 -5.000000e-01 0.000000e+00
    outer loop
      vertex   2.760004e+00 -1.219532e+00 3.632729e+00
      vertex   2.760004e+00 -1.219532e+00 3.367271e+00
      vertex   2.763684e+00 -1.213160e+00 3.613123e+00
    endloop
  endfacet
  facet normal 8.660254e-01 -5.000000e-01 3.399762e-15
    outer loop
      vertex   2.763684e+00 -1.213160e+00 3.613123e+00
      vertex   2.760004e+00 -1.219532e+00 3.367271e+00
      vertex   2.763684e+00 -1.213160e+00 3.386877e+00
    endloop
  endfacet
  facet normal 8.660254e-01 -5.000000e-01 3.399762e-15
    outer loop
      vertex   2.763684e+00 -1.213160e+00 3.613123e+00
      vertex   2.763684e+00 -1.213160e+00 3.386877e+00
      vertex   2.766770e+00 -1.207814e+00 3.593113e+00
    endloop
  endfacet
  facet normal 8.660254e-01 -5.000000e-01 0.000000e+00
    outer loop
      vertex   2.766770e+00 -1.207814e+00 3.593113e+00
      vertex   2.763684e+00 -1.213160e+00 3.386877e+00
      vertex   2.766770e+00 -1.207814e+00 3.406887e+00
    endloop
  endfacet
  facet normal 8.660254e-01 -5.000000e-01 0.000000e+00
    outer loop
      vertex   2.766770e+00 -1.207814e+00 3.593113e+00
      vertex   2.766770e+00 -1.207814e+00 3.406887e+00
      vertex   2.769252e+00 -1.203515e+00 3.572769e+00
    endloop
  endfacet
  facet normal 8.660254e-01 -5.000000e-01 0.000000e+00
    outer loop
      vertex   2.769252e+00 -1.203515e+00 3.572769e+00
      vertex   2.766770e+00 -1.207814e+00 3.406887e+00
      vertex   2.769252e+00 -1.203515e+00 3.427231e+00
    endloop
  endfacet
  facet normal 8.660254e-01 -5.000000e-01 0.000000e+00
    outer loop
      vertex   2.769252e+00 -1.203515e+00 3.572769e+00
      vertex   2.769252e+00 -1.203515e+00 3.427231e+00
      vertex   2.771122e+00 -1.200277e+00 3.552165e+00
    endloop
  endfacet
  facet normal 8.660254e-01 -5.000000e-01 0.000000e+00
    outer loop
      vertex   2.771122e+00 -1.200277e+00 3.552165e+00
      vertex   2.769252e+00 -1.203515e+00 3.427231e+00
      vertex   2.771122e+00 -1.200277e+00 3.447835e+00
    endloop
  endfacet
  facet normal 8.660254e-01 -5.000000e-01 0.000000e+00
    outer loop
      vertex   2.771122e+00 -1.200277e+00 3.552165e+00
      vertex   2.771122e+00 -1.200277e+00 3.447835e+00
      vertex   2.772372e+00 -1.198111e+00 3.531374e+00
    endloop
  endfacet
  facet normal 8.660254e-01 -5.000000e-01 0.000000e+00
    outer loop
      vertex   2.772372e+00 -1.198111e+00 3.531374e+00
      vertex   2.771122e+00 -1.200277e+00 3.447835e+00
      vertex   2.772372e+00 -1.198111e+00 3.468626e+00
    endloop
  endfacet
  facet normal 8.660254e-01 -5.000000e-01 0.000000e+00
    outer loop
      vertex   2.772372e+00 -1.198111e+00 3.531374e+00
      vertex   2.772372e+00 -1.198111e+00 3.468626e+00
      vertex   2.772998e+00 -1.197027e+00 3.510470e+00
    endloop
  endfacet
  facet normal 8.660254e-01 -5.000000e-01 0.000000e+00
    outer loop
      vertex   2.772998e+00 -1.197027e+00 3.510470e+00
      vertex   2.772372e+00 -1.198111e+00 3.468626e+00
      vertex   2.772998e+00 -1.197027e+00 3.489530e+00
    endloop
  endfacet
endsolid
