solid inlet5
  facet normal 8.660254e-01 -5.000000e-01 1.060274e-14
    outer loop
      vertex   2.423522e+00 -1.802337e+00 3.524969e+00
      vertex   2.348524e+00 -1.932238e+00 3.529902e+00
      vertex   2.423076e+00 -1.803109e+00 3.500000e+00
    endloop
  endfacet
  facet normal 8.660254e-01 -5.000000e-01 -4.641078e-15
    outer loop
      vertex   2.423076e+00 -1.803109e+00 3.500000e+00
      vertex   2.348524e+00 -1.932238e+00 3.529902e+00
      vertex   2.348076e+00 -1.933013e+00 3.500000e+00
    endloop
  endfacet
  facet normal 8.660254e-01 -5.000000e-01 4.641078e-15
    outer loop
      vertex   2.423076e+00 -1.803109e+00 3.500000e+00
      vertex   2.348076e+00 -1.933013e+00 3.500000e+00
      vertex   2.348524e+00 -1.932238e+00 3.470098e+00
    endloop
  endfacet
  facet normal 8.660254e-01 -5.000000e-01 1.795962e-15
    outer loop
      vertex   2.348524e+00 -1.932238e+00 3.529902e+00
      vertex   2.423522e+00 -1.802337e+00 3.524969e+00
      vertex   2.349864e+00 -1.929915e+00 3.559697e+00
    endloop
  endfacet
  facet normal 8.660254e-01 -5.000000e-01 1.386936e-15
    outer loop
      vertex   2.349864e+00 -1.929915e+00 3.559697e+00
      vertex   2.423522e+00 -1.802337e+00 3.524969e+00
      vertex   2.424857e+00 -1.800024e+00 3.549810e+00
    endloop
  endfacet
  facet normal 8.660254e-01 -5.000000e-01 -1.113028e-15
    outer loop
      vertex   2.349864e+00 -1.929915e+00 3.559697e+00
      vertex   2.424857e+00 -1.800024e+00 3.549810e+00
      vertex   2.352094e+00 -1.926054e+00 3.589278e+00
    endloop
  endfacet
  facet normal 8.660254e-01 -5.000000e-01 2.310955e-15
    outer loop
      vertex   2.352094e+00 -1.926054e+00 3.589278e+00
      vertex   2.424857e+00 -1.800024e+00 3.549810e+00
      vertex   2.427076e+00 -1.796182e+00 3.574398e+00
    endloop
  endfacet
  facet normal 8.660254e-01 -5.000000e-01 1.100960e-15
    outer loop
      vertex   2.352094e+00 -1.926054e+00 3.589278e+00
      vertex   2.427076e+00 -1.796182e+00 3.574398e+00
      vertex   2.355204e+00 -1.920668e+00 3.618540e+00
    endloop
  endfacet
  facet normal 8.660254e-01 -5.000000e-01 -1.017007e-14
    outer loop
      vertex   2.355204e+00 -1.920668e+00 3.618540e+00
      vertex   2.427076e+00 -1.796182e+00 3.574398e+00
      vertex   2.430165e+00 -1.790831e+00 3.598606e+00
    endloop
  endfacet
  facet normal 8.660254e-01 -5.000000e-01 -5.442758e-15
    outer loop
      vertex   2.355204e+00 -1.920668e+00 3.618540e+00
      vertex   2.430165e+00 -1.790831e+00 3.598606e+00
      vertex   2.359183e+00 -1.913775e+00 3.647378e+00
    endloop
  endfacet
  facet normal 8.660254e-01 -5.000000e-01 4.625662e-15
    outer loop
      vertex   2.359183e+00 -1.913775e+00 3.647378e+00
      vertex   2.430165e+00 -1.790831e+00 3.598606e+00
      vertex   2.434110e+00 -1.783998e+00 3.622312e+00
    endloop
  endfacet
  facet normal 8.660254e-01 -5.000000e-01 7.035102e-15
    outer loop
      vertex   2.359183e+00 -1.913775e+00 3.647378e+00
      vertex   2.434110e+00 -1.783998e+00 3.622312e+00
      vertex   2.364017e+00 -1.905402e+00 3.675687e+00
    endloop
  endfacet
  facet normal 8.660254e-01 -5.000000e-01 -1.087592e-15
    outer loop
      vertex   2.364017e+00 -1.905402e+00 3.675687e+00
      vertex   2.434110e+00 -1.783998e+00 3.622312e+00
      vertex   2.369690e+00 -1.895577e+00 3.703368e+00
    endloop
  endfacet
  facet normal 8.660254e-01 -5.000000e-01 -2.082231e-15
    outer loop
      vertex   2.369690e+00 -1.895577e+00 3.703368e+00
      vertex   2.434110e+00 -1.783998e+00 3.622312e+00
      vertex   2.438891e+00 -1.775718e+00 3.645395e+00
    endloop
  endfacet
  facet normal 8.660254e-01 -5.000000e-01 3.071597e-15
    outer loop
      vertex   2.369690e+00 -1.895577e+00 3.703368e+00
      vertex   2.438891e+00 -1.775718e+00 3.645395e+00
      vertex   2.376180e+00 -1.884336e+00 3.730321e+00
    endloop
  endfacet
  facet normal 8.660254e-01 -5.000000e-01 -8.784740e-15
    outer loop
      vertex   2.376180e+00 -1.884336e+00 3.730321e+00
      vertex   2.438891e+00 -1.775718e+00 3.645395e+00
      vertex   2.444482e+00 -1.766032e+00 3.667737e+00
    endloop
  endfacet
  facet normal 8.660254e-01 -5.000000e-01 3.338959e-15
    outer loop
      vertex   2.376180e+00 -1.884336e+00 3.730321e+00
      vertex   2.444482e+00 -1.766032e+00 3.667737e+00
      vertex   2.383464e+00 -1.871719e+00 3.756450e+00
    endloop
  endfacet
  facet normal 8.660254e-01 -5.000000e-01 4.853074e-15
    outer loop
      vertex   2.383464e+00 -1.871719e+00 3.756450e+00
      vertex   2.444482e+00 -1.766032e+00 3.667737e+00
      vertex   2.450857e+00 -1.754991e+00 3.689224e+00
    endloop
  endfacet
  facet normal 8.660254e-01 -5.000000e-01 -6.025141e-15
    outer loop
      vertex   2.383464e+00 -1.871719e+00 3.756450e+00
      vertex   2.450857e+00 -1.754991e+00 3.689224e+00
      vertex   2.391517e+00 -1.857772e+00 3.781660e+00
    endloop
  endfacet
  facet normal 8.660254e-01 -5.000000e-01 -1.155615e-15
    outer loop
      vertex   2.391517e+00 -1.857772e+00 3.781660e+00
      vertex   2.450857e+00 -1.754991e+00 3.689224e+00
      vertex   2.457981e+00 -1.742651e+00 3.709747e+00
    endloop
  endfacet
  facet normal 8.660254e-01 -5.000000e-01 3.870688e-16
    outer loop
      vertex   2.391517e+00 -1.857772e+00 3.781660e+00
      vertex   2.457981e+00 -1.742651e+00 3.709747e+00
      vertex   2.400308e+00 -1.842544e+00 3.805862e+00
    endloop
  endfacet
  facet normal 8.660254e-01 -5.000000e-01 3.006250e-15
    outer loop
      vertex   2.400308e+00 -1.842544e+00 3.805862e+00
      vertex   2.457981e+00 -1.742651e+00 3.709747e+00
      vertex   2.465820e+00 -1.729074e+00 3.729201e+00
    endloop
  endfacet
  facet normal 8.660254e-01 -5.000000e-01 4.642311e-15
    outer loop
      vertex   2.400308e+00 -1.842544e+00 3.805862e+00
      vertex   2.465820e+00 -1.729074e+00 3.729201e+00
      vertex   2.409808e+00 -1.826090e+00 3.828969e+00
    endloop
  endfacet
  facet normal 8.660254e-01 -5.000000e-01 -6.234551e-15
    outer loop
      vertex   2.409808e+00 -1.826090e+00 3.828969e+00
      vertex   2.465820e+00 -1.729074e+00 3.729201e+00
      vertex   2.419982e+00 -1.808468e+00 3.850899e+00
    endloop
  endfacet
  facet normal 8.660254e-01 -5.000000e-01 -2.082616e-15
    outer loop
      vertex   2.419982e+00 -1.808468e+00 3.850899e+00
      vertex   2.465820e+00 -1.729074e+00 3.729201e+00
      vertex   2.474333e+00 -1.714330e+00 3.747487e+00
    endloop
  endfacet
  facet normal 8.660254e-01 -5.000000e-01 9.431501e-15
    outer loop
      vertex   2.419982e+00 -1.808468e+00 3.850899e+00
      vertex   2.474333e+00 -1.714330e+00 3.747487e+00
      vertex   2.430794e+00 -1.789742e+00 3.871572e+00
    endloop
  endfacet
  facet normal 8.660254e-01 -5.000000e-01 4.624039e-15
    outer loop
      vertex   2.430794e+00 -1.789742e+00 3.871572e+00
      vertex   2.474333e+00 -1.714330e+00 3.747487e+00
      vertex   2.483476e+00 -1.698494e+00 3.764512e+00
    endloop
  endfacet
  facet normal 8.660254e-01 -5.000000e-01 -2.854918e-15
    outer loop
      vertex   2.430794e+00 -1.789742e+00 3.871572e+00
      vertex   2.483476e+00 -1.698494e+00 3.764512e+00
      vertex   2.442204e+00 -1.769979e+00 3.890916e+00
    endloop
  endfacet
  facet normal 8.660254e-01 -5.000000e-01 -3.697682e-15
    outer loop
      vertex   2.442204e+00 -1.769979e+00 3.890916e+00
      vertex   2.483476e+00 -1.698494e+00 3.764512e+00
      vertex   2.493203e+00 -1.681646e+00 3.780189e+00
    endloop
  endfacet
  facet normal 8.660254e-01 -5.000000e-01 -3.387657e-16
    outer loop
      vertex   2.442204e+00 -1.769979e+00 3.890916e+00
      vertex   2.493203e+00 -1.681646e+00 3.780189e+00
      vertex   2.454172e+00 -1.749250e+00 3.908860e+00
    endloop
  endfacet
  facet normal 8.660254e-01 -5.000000e-01 4.737779e-15
    outer loop
      vertex   2.454172e+00 -1.749250e+00 3.908860e+00
      vertex   2.493203e+00 -1.681646e+00 3.780189e+00
      vertex   2.503464e+00 -1.663873e+00 3.794439e+00
    endloop
  endfacet
  facet normal 8.660254e-01 -5.000000e-01 -1.693533e-15
    outer loop
      vertex   2.454172e+00 -1.749250e+00 3.908860e+00
      vertex   2.503464e+00 -1.663873e+00 3.794439e+00
      vertex   2.466655e+00 -1.727628e+00 3.925340e+00
    endloop
  endfacet
  facet normal 8.660254e-01 -5.000000e-01 -7.745873e-15
    outer loop
      vertex   2.466655e+00 -1.727628e+00 3.925340e+00
      vertex   2.503464e+00 -1.663873e+00 3.794439e+00
      vertex   2.514208e+00 -1.645265e+00 3.807188e+00
    endloop
  endfacet
  facet normal 8.660254e-01 -5.000000e-01 -2.176340e-15
    outer loop
      vertex   2.466655e+00 -1.727628e+00 3.925340e+00
      vertex   2.514208e+00 -1.645265e+00 3.807188e+00
      vertex   2.479609e+00 -1.705191e+00 3.940298e+00
    endloop
  endfacet
  facet normal 8.660254e-01 -5.000000e-01 8.678704e-15
    outer loop
      vertex   2.479609e+00 -1.705191e+00 3.940298e+00
      vertex   2.514208e+00 -1.645265e+00 3.807188e+00
      vertex   2.525379e+00 -1.625916e+00 3.818371e+00
    endloop
  endfacet
  facet normal 8.660254e-01 -5.000000e-01 4.929103e-15
    outer loop
      vertex   2.479609e+00 -1.705191e+00 3.940298e+00
      vertex   2.525379e+00 -1.625916e+00 3.818371e+00
      vertex   2.492987e+00 -1.682020e+00 3.953679e+00
    endloop
  endfacet
  facet normal 8.660254e-01 -5.000000e-01 1.257393e-15
    outer loop
      vertex   2.492987e+00 -1.682020e+00 3.953679e+00
      vertex   2.525379e+00 -1.625916e+00 3.818371e+00
      vertex   2.506741e+00 -1.658197e+00 3.965437e+00
    endloop
  endfacet
  facet normal 8.660254e-01 -5.000000e-01 -2.427912e-15
    outer loop
      vertex   2.506741e+00 -1.658197e+00 3.965437e+00
      vertex   2.525379e+00 -1.625916e+00 3.818371e+00
      vertex   2.536920e+00 -1.605926e+00 3.827932e+00
    endloop
  endfacet
  facet normal 8.660254e-01 -5.000000e-01 -1.911235e-15
    outer loop
      vertex   2.506741e+00 -1.658197e+00 3.965437e+00
      vertex   2.536920e+00 -1.605926e+00 3.827932e+00
      vertex   2.520822e+00 -1.633808e+00 3.975528e+00
    endloop
  endfacet
  facet normal 8.660254e-01 -5.000000e-01 -1.242242e-15
    outer loop
      vertex   2.520822e+00 -1.633808e+00 3.975528e+00
      vertex   2.536920e+00 -1.605926e+00 3.827932e+00
      vertex   2.548773e+00 -1.585396e+00 3.835823e+00
    endloop
  endfacet
  facet normal 8.660254e-01 -5.000000e-01 4.331355e-15
    outer loop
      vertex   2.520822e+00 -1.633808e+00 3.975528e+00
      vertex   2.548773e+00 -1.585396e+00 3.835823e+00
      vertex   2.535180e+00 -1.608940e+00 3.983917e+00
    endloop
  endfacet
  facet normal 8.660254e-01 -5.000000e-01 6.557538e-15
    outer loop
      vertex   2.535180e+00 -1.608940e+00 3.983917e+00
      vertex   2.548773e+00 -1.585396e+00 3.835823e+00
      vertex   2.560877e+00 -1.564430e+00 3.842001e+00
    endloop
  endfacet
  facet normal 8.660254e-01 -5.000000e-01 -4.838925e-15
    outer loop
      vertex   2.535180e+00 -1.608940e+00 3.983917e+00
      vertex   2.560877e+00 -1.564430e+00 3.842001e+00
      vertex   2.549762e+00 -1.583682e+00 3.990574e+00
    endloop
  endfacet
  facet normal 8.660254e-01 -5.000000e-01 -4.060334e-15
    outer loop
      vertex   2.549762e+00 -1.583682e+00 3.990574e+00
      vertex   2.560877e+00 -1.564430e+00 3.842001e+00
      vertex   2.573171e+00 -1.543137e+00 3.846438e+00
    endloop
  endfacet
  facet normal 8.660254e-01 -5.000000e-01 4.208048e-15
    outer loop
      vertex   2.549762e+00 -1.583682e+00 3.990574e+00
      vertex   2.573171e+00 -1.543137e+00 3.846438e+00
      vertex   2.564518e+00 -1.558125e+00 3.995475e+00
    endloop
  endfacet
  facet normal 8.660254e-01 -5.000000e-01 4.338510e-16
    outer loop
      vertex   2.564518e+00 -1.558125e+00 3.995475e+00
      vertex   2.573171e+00 -1.543137e+00 3.846438e+00
      vertex   2.585592e+00 -1.521624e+00 3.849108e+00
    endloop
  endfacet
  facet normal 8.660254e-01 -5.000000e-01 1.933297e-16
    outer loop
      vertex   2.564518e+00 -1.558125e+00 3.995475e+00
      vertex   2.585592e+00 -1.521624e+00 3.849108e+00
      vertex   2.579394e+00 -1.532359e+00 3.998602e+00
    endloop
  endfacet
  facet normal 8.660254e-01 -5.000000e-01 2.055104e-15
    outer loop
      vertex   2.579394e+00 -1.532359e+00 3.998602e+00
      vertex   2.585592e+00 -1.521624e+00 3.849108e+00
      vertex   2.594336e+00 -1.506478e+00 3.999944e+00
    endloop
  endfacet
  facet normal 8.660254e-01 -5.000000e-01 2.357775e-15
    outer loop
      vertex   2.594336e+00 -1.506478e+00 3.999944e+00
      vertex   2.585592e+00 -1.521624e+00 3.849108e+00
      vertex   2.598076e+00 -1.500000e+00 3.850000e+00
    endloop
  endfacet
  facet normal 8.660254e-01 -5.000000e-01 1.348662e-15
    outer loop
      vertex   2.594336e+00 -1.506478e+00 3.999944e+00
      vertex   2.598076e+00 -1.500000e+00 3.850000e+00
      vertex   2.609292e+00 -1.480573e+00 3.999497e+00
    endloop
  endfacet
  facet normal 8.660254e-01 -5.000000e-01 -5.055915e-17
    outer loop
      vertex   2.609292e+00 -1.480573e+00 3.999497e+00
      vertex   2.598076e+00 -1.500000e+00 3.850000e+00
      vertex   2.610561e+00 -1.478376e+00 3.849108e+00
    endloop
  endfacet
  facet normal 8.660254e-01 -5.000000e-01 1.466957e-16
    outer loop
      vertex   2.609292e+00 -1.480573e+00 3.999497e+00
      vertex   2.610561e+00 -1.478376e+00 3.849108e+00
      vertex   2.624208e+00 -1.454738e+00 3.997261e+00
    endloop
  endfacet
  facet normal 8.660254e-01 -5.000000e-01 -1.082366e-15
    outer loop
      vertex   2.624208e+00 -1.454738e+00 3.997261e+00
      vertex   2.610561e+00 -1.478376e+00 3.849108e+00
      vertex   2.622981e+00 -1.456863e+00 3.846438e+00
    endloop
  endfacet
  facet normal 8.660254e-01 -5.000000e-01 -9.693395e-16
    outer loop
      vertex   2.624208e+00 -1.454738e+00 3.997261e+00
      vertex   2.622981e+00 -1.456863e+00 3.846438e+00
      vertex   2.639031e+00 -1.429065e+00 3.993245e+00
    endloop
  endfacet
  facet normal 8.660254e-01 -5.000000e-01 -7.585262e-17
    outer loop
      vertex   2.639031e+00 -1.429065e+00 3.993245e+00
      vertex   2.622981e+00 -1.456863e+00 3.846438e+00
      vertex   2.635275e+00 -1.435570e+00 3.842001e+00
    endloop
  endfacet
  facet normal 8.660254e-01 -5.000000e-01 -6.923407e-16
    outer loop
      vertex   2.639031e+00 -1.429065e+00 3.993245e+00
      vertex   2.635275e+00 -1.435570e+00 3.842001e+00
      vertex   2.653706e+00 -1.403646e+00 3.987464e+00
    endloop
  endfacet
  facet normal 8.660254e-01 -5.000000e-01 -1.301318e-15
    outer loop
      vertex   2.653706e+00 -1.403646e+00 3.987464e+00
      vertex   2.635275e+00 -1.435570e+00 3.842001e+00
      vertex   2.647379e+00 -1.414604e+00 3.835823e+00
    endloop
  endfacet
  facet normal 8.660254e-01 -5.000000e-01 1.063477e-15
    outer loop
      vertex   2.653706e+00 -1.403646e+00 3.987464e+00
      vertex   2.647379e+00 -1.414604e+00 3.835823e+00
      vertex   2.668183e+00 -1.378571e+00 3.979938e+00
    endloop
  endfacet
  facet normal 8.660254e-01 -5.000000e-01 -3.432783e-15
    outer loop
      vertex   2.668183e+00 -1.378571e+00 3.979938e+00
      vertex   2.647379e+00 -1.414604e+00 3.835823e+00
      vertex   2.682409e+00 -1.353932e+00 3.970693e+00
    endloop
  endfacet
  facet normal 8.660254e-01 -5.000000e-01 1.098651e-14
    outer loop
      vertex   2.682409e+00 -1.353932e+00 3.970693e+00
      vertex   2.647379e+00 -1.414604e+00 3.835823e+00
      vertex   2.659232e+00 -1.394074e+00 3.827932e+00
    endloop
  endfacet
  facet normal 8.660254e-01 -5.000000e-01 4.475038e-15
    outer loop
      vertex   2.682409e+00 -1.353932e+00 3.970693e+00
      vertex   2.659232e+00 -1.394074e+00 3.827932e+00
      vertex   2.696332e+00 -1.329815e+00 3.959764e+00
    endloop
  endfacet
  facet normal 8.660254e-01 -5.000000e-01 -2.715937e-15
    outer loop
      vertex   2.696332e+00 -1.329815e+00 3.959764e+00
      vertex   2.659232e+00 -1.394074e+00 3.827932e+00
      vertex   2.670774e+00 -1.374084e+00 3.818371e+00
    endloop
  endfacet
  facet normal 8.660254e-01 -5.000000e-01 -1.209836e-16
    outer loop
      vertex   2.696332e+00 -1.329815e+00 3.959764e+00
      vertex   2.670774e+00 -1.374084e+00 3.818371e+00
      vertex   2.709904e+00 -1.306308e+00 3.947189e+00
    endloop
  endfacet
  facet normal 8.660254e-01 -5.000000e-01 -9.186034e-15
    outer loop
      vertex   2.709904e+00 -1.306308e+00 3.947189e+00
      vertex   2.670774e+00 -1.374084e+00 3.818371e+00
      vertex   2.681945e+00 -1.354735e+00 3.807188e+00
    endloop
  endfacet
  facet normal 8.660254e-01 -5.000000e-01 -2.129292e-15
    outer loop
      vertex   2.709904e+00 -1.306308e+00 3.947189e+00
      vertex   2.681945e+00 -1.354735e+00 3.807188e+00
      vertex   2.723076e+00 -1.283494e+00 3.933013e+00
    endloop
  endfacet
  facet normal 8.660254e-01 -5.000000e-01 5.432016e-15
    outer loop
      vertex   2.723076e+00 -1.283494e+00 3.933013e+00
      vertex   2.681945e+00 -1.354735e+00 3.807188e+00
      vertex   2.692688e+00 -1.336127e+00 3.794439e+00
    endloop
  endfacet
  facet normal 8.660254e-01 -5.000000e-01 1.717400e-15
    outer loop
      vertex   2.723076e+00 -1.283494e+00 3.933013e+00
      vertex   2.692688e+00 -1.336127e+00 3.794439e+00
      vertex   2.735800e+00 -1.261455e+00 3.917287e+00
    endloop
  endfacet
  facet normal 8.660254e-01 -5.000000e-01 -8.327052e-15
    outer loop
      vertex   2.735800e+00 -1.261455e+00 3.917287e+00
      vertex   2.692688e+00 -1.336127e+00 3.794439e+00
      vertex   2.702950e+00 -1.318354e+00 3.780189e+00
    endloop
  endfacet
  facet normal 8.660254e-01 -5.000000e-01 -6.381782e-15
    outer loop
      vertex   2.735800e+00 -1.261455e+00 3.917287e+00
      vertex   2.702950e+00 -1.318354e+00 3.780189e+00
      vertex   2.748032e+00 -1.240270e+00 3.900067e+00
    endloop
  endfacet
  facet normal 8.660254e-01 -5.000000e-01 -1.643636e-15
    outer loop
      vertex   2.748032e+00 -1.240270e+00 3.900067e+00
      vertex   2.702950e+00 -1.318354e+00 3.780189e+00
      vertex   2.759726e+00 -1.220014e+00 3.881415e+00
    endloop
  endfacet
  facet normal 8.660254e-01 -5.000000e-01 6.939969e-15
    outer loop
      vertex   2.759726e+00 -1.220014e+00 3.881415e+00
      vertex   2.702950e+00 -1.318354e+00 3.780189e+00
      vertex   2.712677e+00 -1.301506e+00 3.764512e+00
    endloop
  endfacet
  facet normal 8.660254e-01 -5.000000e-01 -3.628098e-16
    outer loop
      vertex   2.759726e+00 -1.220014e+00 3.881415e+00
      vertex   2.712677e+00 -1.301506e+00 3.764512e+00
      vertex   2.770842e+00 -1.200761e+00 3.861397e+00
    endloop
  endfacet
  facet normal 8.660254e-01 -5.000000e-01 -3.929767e-15
    outer loop
      vertex   2.770842e+00 -1.200761e+00 3.861397e+00
      vertex   2.712677e+00 -1.301506e+00 3.764512e+00
      vertex   2.721820e+00 -1.285670e+00 3.747487e+00
    endloop
  endfacet
  facet normal 8.660254e-01 -5.000000e-01 4.161709e-15
    outer loop
      vertex   2.770842e+00 -1.200761e+00 3.861397e+00
      vertex   2.721820e+00 -1.285670e+00 3.747487e+00
      vertex   2.781339e+00 -1.182579e+00 3.840086e+00
    endloop
  endfacet
  facet normal 8.660254e-01 -5.000000e-01 2.310963e-16
    outer loop
      vertex   2.781339e+00 -1.182579e+00 3.840086e+00
      vertex   2.721820e+00 -1.285670e+00 3.747487e+00
      vertex   2.730332e+00 -1.270926e+00 3.729201e+00
    endloop
  endfacet
  facet normal 8.660254e-01 -5.000000e-01 -1.362296e-14
    outer loop
      vertex   2.781339e+00 -1.182579e+00 3.840086e+00
      vertex   2.730332e+00 -1.270926e+00 3.729201e+00
      vertex   2.791180e+00 -1.165534e+00 3.817558e+00
    endloop
  endfacet
  facet normal 8.660254e-01 -5.000000e-01 1.040096e-14
    outer loop
      vertex   2.791180e+00 -1.165534e+00 3.817558e+00
      vertex   2.730332e+00 -1.270926e+00 3.729201e+00
      vertex   2.738171e+00 -1.257349e+00 3.709747e+00
    endloop
  endfacet
  facet normal 8.660254e-01 -5.000000e-01 4.620414e-15
    outer loop
      vertex   2.791180e+00 -1.165534e+00 3.817558e+00
      vertex   2.738171e+00 -1.257349e+00 3.709747e+00
      vertex   2.800330e+00 -1.149685e+00 3.793893e+00
    endloop
  endfacet
  facet normal 8.660254e-01 -5.000000e-01 2.775261e-15
    outer loop
      vertex   2.800330e+00 -1.149685e+00 3.793893e+00
      vertex   2.738171e+00 -1.257349e+00 3.709747e+00
      vertex   2.745296e+00 -1.245009e+00 3.689224e+00
    endloop
  endfacet
  facet normal 8.660254e-01 -5.000000e-01 1.010585e-14
    outer loop
      vertex   2.800330e+00 -1.149685e+00 3.793893e+00
      vertex   2.745296e+00 -1.245009e+00 3.689224e+00
      vertex   2.808756e+00 -1.135091e+00 3.769175e+00
    endloop
  endfacet
  facet normal 8.660254e-01 -5.000000e-01 -5.582689e-15
    outer loop
      vertex   2.808756e+00 -1.135091e+00 3.769175e+00
      vertex   2.745296e+00 -1.245009e+00 3.689224e+00
      vertex   2.816428e+00 -1.121803e+00 3.743494e+00
    endloop
  endfacet
  facet normal 8.660254e-01 -5.000000e-01 -1.388238e-14
    outer loop
      vertex   2.816428e+00 -1.121803e+00 3.743494e+00
      vertex   2.745296e+00 -1.245009e+00 3.689224e+00
      vertex   2.751670e+00 -1.233968e+00 3.667737e+00
    endloop
  endfacet
  facet normal 8.660254e-01 -5.000000e-01 -1.717136e-15
    outer loop
      vertex   2.816428e+00 -1.121803e+00 3.743494e+00
      vertex   2.751670e+00 -1.233968e+00 3.667737e+00
      vertex   2.823318e+00 -1.109869e+00 3.716942e+00
    endloop
  endfacet
  facet normal 8.660254e-01 -5.000000e-01 6.010815e-15
    outer loop
      vertex   2.823318e+00 -1.109869e+00 3.716942e+00
      vertex   2.751670e+00 -1.233968e+00 3.667737e+00
      vertex   2.757262e+00 -1.224282e+00 3.645395e+00
    endloop
  endfacet
  facet normal 8.660254e-01 -5.000000e-01 2.782425e-15
    outer loop
      vertex   2.823318e+00 -1.109869e+00 3.716942e+00
      vertex   2.757262e+00 -1.224282e+00 3.645395e+00
      vertex   2.829402e+00 -1.099331e+00 3.689613e+00
    endloop
  endfacet
  facet normal 8.660254e-01 -5.000000e-01 2.311005e-15
    outer loop
      vertex   2.829402e+00 -1.099331e+00 3.689613e+00
      vertex   2.757262e+00 -1.224282e+00 3.645395e+00
      vertex   2.762042e+00 -1.216002e+00 3.622312e+00
    endloop
  endfacet
  facet normal 8.660254e-01 -5.000000e-01 -4.573317e-15
    outer loop
      vertex   2.829402e+00 -1.099331e+00 3.689613e+00
      vertex   2.762042e+00 -1.216002e+00 3.622312e+00
      vertex   2.834658e+00 -1.090228e+00 3.661605e+00
    endloop
  endfacet
  facet normal 8.660254e-01 -5.000000e-01 -4.622373e-15
    outer loop
      vertex   2.834658e+00 -1.090228e+00 3.661605e+00
      vertex   2.762042e+00 -1.216002e+00 3.622312e+00
      vertex   2.765987e+00 -1.209169e+00 3.598606e+00
    endloop
  endfacet
  facet normal 8.660254e-01 -5.000000e-01 4.306236e-15
    outer loop
      vertex   2.834658e+00 -1.090228e+00 3.661605e+00
      vertex   2.765987e+00 -1.209169e+00 3.598606e+00
      vertex   2.839067e+00 -1.082592e+00 3.633018e+00
    endloop
  endfacet
  facet normal 8.660254e-01 -5.000000e-01 9.712066e-15
    outer loop
      vertex   2.839067e+00 -1.082592e+00 3.633018e+00
      vertex   2.765987e+00 -1.209169e+00 3.598606e+00
      vertex   2.769077e+00 -1.203818e+00 3.574398e+00
    endloop
  endfacet
  facet normal 8.660254e-01 -5.000000e-01 1.448363e-14
    outer loop
      vertex   2.839067e+00 -1.082592e+00 3.633018e+00
      vertex   2.769077e+00 -1.203818e+00 3.574398e+00
      vertex   2.842613e+00 -1.076450e+00 3.603956e+00
    endloop
  endfacet
  facet normal 8.660254e-01 -5.000000e-01 -7.986074e-15
    outer loop
      vertex   2.842613e+00 -1.076450e+00 3.603956e+00
      vertex   2.769077e+00 -1.203818e+00 3.574398e+00
      vertex   2.845284e+00 -1.071824e+00 3.574521e+00
    endloop
  endfacet
  facet normal 8.660254e-01 -5.000000e-01 -2.777001e-15
    outer loop
      vertex   2.845284e+00 -1.071824e+00 3.574521e+00
      vertex   2.769077e+00 -1.203818e+00 3.574398e+00
      vertex   2.771295e+00 -1.199976e+00 3.549810e+00
    endloop
  endfacet
  facet normal 8.660254e-01 -5.000000e-01 -1.791920e-14
    outer loop
      vertex   2.845284e+00 -1.071824e+00 3.574521e+00
      vertex   2.771295e+00 -1.199976e+00 3.549810e+00
      vertex   2.847070e+00 -1.068730e+00 3.544820e+00
    endloop
  endfacet
  facet normal 8.660254e-01 -5.000000e-01 -1.387265e-15
    outer loop
      vertex   2.847070e+00 -1.068730e+00 3.544820e+00
      vertex   2.771295e+00 -1.199976e+00 3.549810e+00
      vertex   2.772630e+00 -1.197663e+00 3.524969e+00
    endloop
  endfacet
  facet normal 8.660254e-01 -5.000000e-01 8.250081e-15
    outer loop
      vertex   2.847070e+00 -1.068730e+00 3.544820e+00
      vertex   2.772630e+00 -1.197663e+00 3.524969e+00
      vertex   2.847964e+00 -1.067181e+00 3.514958e+00
    endloop
  endfacet
  facet normal 8.660254e-01 -5.000000e-01 -1.063097e-14
    outer loop
      vertex   2.847964e+00 -1.067181e+00 3.514958e+00
      vertex   2.772630e+00 -1.197663e+00 3.524969e+00
      vertex   2.773076e+00 -1.196891e+00 3.500000e+00
    endloop
  endfacet
  facet normal 8.660254e-01 -5.000000e-01 0.000000e+00
    outer loop
      vertex   2.847964e+00 -1.067181e+00 3.514958e+00
      vertex   2.773076e+00 -1.196891e+00 3.500000e+00
      vertex   2.847964e+00 -1.067181e+00 3.485042e+00
    endloop
  endfacet
  facet normal 8.660254e-01 -5.000000e-01 1.063097e-14
    outer loop
      vertex   2.847964e+00 -1.067181e+00 3.485042e+00
      vertex   2.773076e+00 -1.196891e+00 3.500000e+00
      vertex   2.772630e+00 -1.197663e+00 3.475031e+00
    endloop
  endfacet
  facet normal 8.660254e-01 -5.000000e-01 -8.250081e-15
    outer loop
      vertex   2.847964e+00 -1.067181e+00 3.485042e+00
      vertex   2.772630e+00 -1.197663e+00 3.475031e+00
      vertex   2.847070e+00 -1.068730e+00 3.455180e+00
    endloop
  endfacet
  facet normal 8.660254e-01 -5.000000e-01 1.387265e-15
    outer loop
      vertex   2.847070e+00 -1.068730e+00 3.455180e+00
      vertex   2.772630e+00 -1.197663e+00 3.475031e+00
      vertex   2.771295e+00 -1.199976e+00 3.450190e+00
    endloop
  endfacet
  facet normal 8.660254e-01 -5.000000e-01 1.791920e-14
    outer loop
      vertex   2.847070e+00 -1.068730e+00 3.455180e+00
      vertex   2.771295e+00 -1.199976e+00 3.450190e+00
      vertex   2.845284e+00 -1.071824e+00 3.425479e+00
    endloop
  endfacet
  facet normal 8.660254e-01 -5.000000e-01 2.777001e-15
    outer loop
      vertex   2.845284e+00 -1.071824e+00 3.425479e+00
      vertex   2.771295e+00 -1.199976e+00 3.450190e+00
      vertex   2.769077e+00 -1.203818e+00 3.425602e+00
    endloop
  endfacet
  facet normal 8.660254e-01 -5.000000e-01 7.986074e-15
    outer loop
      vertex   2.845284e+00 -1.071824e+00 3.425479e+00
      vertex   2.769077e+00 -1.203818e+00 3.425602e+00
      vertex   2.842613e+00 -1.076450e+00 3.396044e+00
    endloop
  endfacet
  facet normal 8.660254e-01 -5.000000e-01 -1.448363e-14
    outer loop
      vertex   2.842613e+00 -1.076450e+00 3.396044e+00
      vertex   2.769077e+00 -1.203818e+00 3.425602e+00
      vertex   2.839067e+00 -1.082592e+00 3.366982e+00
    endloop
  endfacet
  facet normal 8.660254e-01 -5.000000e-01 -9.712066e-15
    outer loop
      vertex   2.839067e+00 -1.082592e+00 3.366982e+00
      vertex   2.769077e+00 -1.203818e+00 3.425602e+00
      vertex   2.765987e+00 -1.209169e+00 3.401394e+00
    endloop
  endfacet
  facet normal 8.660254e-01 -5.000000e-01 -4.330428e-15
    outer loop
      vertex   2.839067e+00 -1.082592e+00 3.366982e+00
      vertex   2.765987e+00 -1.209169e+00 3.401394e+00
      vertex   2.834658e+00 -1.090228e+00 3.338395e+00
    endloop
  endfacet
  facet normal 8.660254e-01 -5.000000e-01 4.622373e-15
    outer loop
      vertex   2.834658e+00 -1.090228e+00 3.338395e+00
      vertex   2.765987e+00 -1.209169e+00 3.401394e+00
      vertex   2.762042e+00 -1.216002e+00 3.377688e+00
    endloop
  endfacet
  facet normal 8.660254e-01 -5.000000e-01 4.597515e-15
    outer loop
      vertex   2.834658e+00 -1.090228e+00 3.338395e+00
      vertex   2.762042e+00 -1.216002e+00 3.377688e+00
      vertex   2.829402e+00 -1.099331e+00 3.310387e+00
    endloop
  endfacet
  facet normal 8.660254e-01 -5.000000e-01 -2.311005e-15
    outer loop
      vertex   2.829402e+00 -1.099331e+00 3.310387e+00
      vertex   2.762042e+00 -1.216002e+00 3.377688e+00
      vertex   2.757262e+00 -1.224282e+00 3.354605e+00
    endloop
  endfacet
  facet normal 8.660254e-01 -5.000000e-01 7.984351e-16
    outer loop
      vertex   2.829402e+00 -1.099331e+00 3.310387e+00
      vertex   2.757262e+00 -1.224282e+00 3.354605e+00
      vertex   2.823318e+00 -1.109869e+00 3.283058e+00
    endloop
  endfacet
  facet normal 8.660254e-01 -5.000000e-01 -5.548445e-15
    outer loop
      vertex   2.823318e+00 -1.109869e+00 3.283058e+00
      vertex   2.757262e+00 -1.224282e+00 3.354605e+00
      vertex   2.751670e+00 -1.233968e+00 3.332263e+00
    endloop
  endfacet
  facet normal 8.660254e-01 -5.000000e-01 -1.499470e-15
    outer loop
      vertex   2.823318e+00 -1.109869e+00 3.283058e+00
      vertex   2.751670e+00 -1.233968e+00 3.332263e+00
      vertex   2.816428e+00 -1.121803e+00 3.256506e+00
    endloop
  endfacet
  facet normal 8.660254e-01 -5.000000e-01 1.388238e-14
    outer loop
      vertex   2.816428e+00 -1.121803e+00 3.256506e+00
      vertex   2.751670e+00 -1.233968e+00 3.332263e+00
      vertex   2.745296e+00 -1.245009e+00 3.310776e+00
    endloop
  endfacet
  facet normal 8.660254e-01 -5.000000e-01 2.054236e-15
    outer loop
      vertex   2.816428e+00 -1.121803e+00 3.256506e+00
      vertex   2.745296e+00 -1.245009e+00 3.310776e+00
      vertex   2.808756e+00 -1.135091e+00 3.230825e+00
    endloop
  endfacet
  facet normal 8.660254e-01 -5.000000e-01 -7.373883e-15
    outer loop
      vertex   2.808756e+00 -1.135091e+00 3.230825e+00
      vertex   2.745296e+00 -1.245009e+00 3.310776e+00
      vertex   2.800330e+00 -1.149685e+00 3.206107e+00
    endloop
  endfacet
  facet normal 8.660254e-01 -5.000000e-01 -2.775261e-15
    outer loop
      vertex   2.800330e+00 -1.149685e+00 3.206107e+00
      vertex   2.745296e+00 -1.245009e+00 3.310776e+00
      vertex   2.738171e+00 -1.257349e+00 3.290253e+00
    endloop
  endfacet
  facet normal 8.660254e-01 -5.000000e-01 -4.596224e-15
    outer loop
      vertex   2.800330e+00 -1.149685e+00 3.206107e+00
      vertex   2.738171e+00 -1.257349e+00 3.290253e+00
      vertex   2.791180e+00 -1.165534e+00 3.182442e+00
    endloop
  endfacet
  facet normal 8.660254e-01 -5.000000e-01 -1.040096e-14
    outer loop
      vertex   2.791180e+00 -1.165534e+00 3.182442e+00
      vertex   2.738171e+00 -1.257349e+00 3.290253e+00
      vertex   2.730332e+00 -1.270926e+00 3.270799e+00
    endloop
  endfacet
  facet normal 8.660254e-01 -5.000000e-01 1.364716e-14
    outer loop
      vertex   2.791180e+00 -1.165534e+00 3.182442e+00
      vertex   2.730332e+00 -1.270926e+00 3.270799e+00
      vertex   2.781339e+00 -1.182579e+00 3.159914e+00
    endloop
  endfacet
  facet normal 8.660254e-01 -5.000000e-01 -2.310963e-16
    outer loop
      vertex   2.781339e+00 -1.182579e+00 3.159914e+00
      vertex   2.730332e+00 -1.270926e+00 3.270799e+00
      vertex   2.721820e+00 -1.285670e+00 3.252513e+00
    endloop
  endfacet
  facet normal 8.660254e-01 -5.000000e-01 -4.161709e-15
    outer loop
      vertex   2.781339e+00 -1.182579e+00 3.159914e+00
      vertex   2.721820e+00 -1.285670e+00 3.252513e+00
      vertex   2.770842e+00 -1.200761e+00 3.138603e+00
    endloop
  endfacet
  facet normal 8.660254e-01 -5.000000e-01 3.929767e-15
    outer loop
      vertex   2.770842e+00 -1.200761e+00 3.138603e+00
      vertex   2.721820e+00 -1.285670e+00 3.252513e+00
      vertex   2.712677e+00 -1.301506e+00 3.235488e+00
    endloop
  endfacet
  facet normal 8.660254e-01 -5.000000e-01 -5.417959e-15
    outer loop
      vertex   2.770842e+00 -1.200761e+00 3.138603e+00
      vertex   2.712677e+00 -1.301506e+00 3.235488e+00
      vertex   2.759726e+00 -1.220014e+00 3.118585e+00
    endloop
  endfacet
  facet normal 8.660254e-01 -5.000000e-01 -7.865298e-15
    outer loop
      vertex   2.759726e+00 -1.220014e+00 3.118585e+00
      vertex   2.712677e+00 -1.301506e+00 3.235488e+00
      vertex   2.702950e+00 -1.318354e+00 3.219811e+00
    endloop
  endfacet
  facet normal 8.660254e-01 -5.000000e-01 6.091123e-15
    outer loop
      vertex   2.759726e+00 -1.220014e+00 3.118585e+00
      vertex   2.702950e+00 -1.318354e+00 3.219811e+00
      vertex   2.748032e+00 -1.240270e+00 3.099933e+00
    endloop
  endfacet
  facet normal 8.660254e-01 -5.000000e-01 6.381782e-15
    outer loop
      vertex   2.748032e+00 -1.240270e+00 3.099933e+00
      vertex   2.702950e+00 -1.318354e+00 3.219811e+00
      vertex   2.735800e+00 -1.261455e+00 3.082713e+00
    endloop
  endfacet
  facet normal 8.660254e-01 -5.000000e-01 3.469605e-15
    outer loop
      vertex   2.735800e+00 -1.261455e+00 3.082713e+00
      vertex   2.702950e+00 -1.318354e+00 3.219811e+00
      vertex   2.692688e+00 -1.336127e+00 3.205561e+00
    endloop
  endfacet
  facet normal 8.660254e-01 -5.000000e-01 -2.297929e-15
    outer loop
      vertex   2.735800e+00 -1.261455e+00 3.082713e+00
      vertex   2.692688e+00 -1.336127e+00 3.205561e+00
      vertex   2.723076e+00 -1.283494e+00 3.066987e+00
    endloop
  endfacet
  facet normal 8.660254e-01 -5.000000e-01 0.000000e+00
    outer loop
      vertex   2.723076e+00 -1.283494e+00 3.066987e+00
      vertex   2.692688e+00 -1.336127e+00 3.205561e+00
      vertex   2.681945e+00 -1.354735e+00 3.192812e+00
    endloop
  endfacet
  facet normal 8.660254e-01 -5.000000e-01 3.508493e-15
    outer loop
      vertex   2.723076e+00 -1.283494e+00 3.066987e+00
      vertex   2.681945e+00 -1.354735e+00 3.192812e+00
      vertex   2.709904e+00 -1.306308e+00 3.052811e+00
    endloop
  endfacet
  facet normal 8.660254e-01 -5.000000e-01 9.186034e-15
    outer loop
      vertex   2.709904e+00 -1.306308e+00 3.052811e+00
      vertex   2.681945e+00 -1.354735e+00 3.192812e+00
      vertex   2.670774e+00 -1.374084e+00 3.181629e+00
    endloop
  endfacet
  facet normal 8.660254e-01 -5.000000e-01 9.678691e-17
    outer loop
      vertex   2.709904e+00 -1.306308e+00 3.052811e+00
      vertex   2.670774e+00 -1.374084e+00 3.181629e+00
      vertex   2.696332e+00 -1.329815e+00 3.040236e+00
    endloop
  endfacet
  facet normal 8.660254e-01 -5.000000e-01 2.715937e-15
    outer loop
      vertex   2.696332e+00 -1.329815e+00 3.040236e+00
      vertex   2.670774e+00 -1.374084e+00 3.181629e+00
      vertex   2.659232e+00 -1.394074e+00 3.172068e+00
    endloop
  endfacet
  facet normal 8.660254e-01 -5.000000e-01 -8.151826e-15
    outer loop
      vertex   2.696332e+00 -1.329815e+00 3.040236e+00
      vertex   2.659232e+00 -1.394074e+00 3.172068e+00
      vertex   2.682409e+00 -1.353932e+00 3.029307e+00
    endloop
  endfacet
  facet normal 8.660254e-01 -5.000000e-01 -1.104433e-14
    outer loop
      vertex   2.682409e+00 -1.353932e+00 3.029307e+00
      vertex   2.659232e+00 -1.394074e+00 3.172068e+00
      vertex   2.647379e+00 -1.414604e+00 3.164177e+00
    endloop
  endfacet
  facet normal 8.660254e-01 -5.000000e-01 1.329599e-15
    outer loop
      vertex   2.682409e+00 -1.353932e+00 3.029307e+00
      vertex   2.647379e+00 -1.414604e+00 3.164177e+00
      vertex   2.668183e+00 -1.378571e+00 3.020062e+00
    endloop
  endfacet
  facet normal 8.660254e-01 -5.000000e-01 -1.135987e-15
    outer loop
      vertex   2.668183e+00 -1.378571e+00 3.020062e+00
      vertex   2.647379e+00 -1.414604e+00 3.164177e+00
      vertex   2.653706e+00 -1.403646e+00 3.012536e+00
    endloop
  endfacet
  facet normal 8.660254e-01 -5.000000e-01 2.096568e-16
    outer loop
      vertex   2.653706e+00 -1.403646e+00 3.012536e+00
      vertex   2.647379e+00 -1.414604e+00 3.164177e+00
      vertex   2.635275e+00 -1.435570e+00 3.157999e+00
    endloop
  endfacet
  facet normal 8.660254e-01 -5.000000e-01 -2.176792e-16
    outer loop
      vertex   2.653706e+00 -1.403646e+00 3.012536e+00
      vertex   2.635275e+00 -1.435570e+00 3.157999e+00
      vertex   2.639031e+00 -1.429065e+00 3.006755e+00
    endloop
  endfacet
  facet normal 8.660254e-01 -5.000000e-01 -6.501653e-16
    outer loop
      vertex   2.639031e+00 -1.429065e+00 3.006755e+00
      vertex   2.635275e+00 -1.435570e+00 3.157999e+00
      vertex   2.622981e+00 -1.456863e+00 3.153562e+00
    endloop
  endfacet
  facet normal 8.660254e-01 -5.000000e-01 1.028316e-15
    outer loop
      vertex   2.639031e+00 -1.429065e+00 3.006755e+00
      vertex   2.622981e+00 -1.456863e+00 3.153562e+00
      vertex   2.624208e+00 -1.454738e+00 3.002739e+00
    endloop
  endfacet
  facet normal 8.660254e-01 -5.000000e-01 8.305060e-16
    outer loop
      vertex   2.624208e+00 -1.454738e+00 3.002739e+00
      vertex   2.622981e+00 -1.456863e+00 3.153562e+00
      vertex   2.610561e+00 -1.478376e+00 3.150892e+00
    endloop
  endfacet
  facet normal 8.660254e-01 -5.000000e-01 -2.274540e-15
    outer loop
      vertex   2.624208e+00 -1.454738e+00 3.002739e+00
      vertex   2.610561e+00 -1.478376e+00 3.150892e+00
      vertex   2.609292e+00 -1.480573e+00 3.000503e+00
    endloop
  endfacet
  facet normal 8.660254e-01 -5.000000e-01 -2.768114e-15
    outer loop
      vertex   2.609292e+00 -1.480573e+00 3.000503e+00
      vertex   2.610561e+00 -1.478376e+00 3.150892e+00
      vertex   2.598076e+00 -1.500000e+00 3.150000e+00
    endloop
  endfacet
  facet normal 8.660254e-01 -5.000000e-01 -1.257944e-15
    outer loop
      vertex   2.609292e+00 -1.480573e+00 3.000503e+00
      vertex   2.598076e+00 -1.500000e+00 3.150000e+00
      vertex   2.594336e+00 -1.506478e+00 3.000056e+00
    endloop
  endfacet
  facet normal 8.660254e-01 -5.000000e-01 7.768913e-16
    outer loop
      vertex   2.594336e+00 -1.506478e+00 3.000056e+00
      vertex   2.598076e+00 -1.500000e+00 3.150000e+00
      vertex   2.585592e+00 -1.521624e+00 3.150892e+00
    endloop
  endfacet
  facet normal 8.660254e-01 -5.000000e-01 3.088701e-15
    outer loop
      vertex   2.594336e+00 -1.506478e+00 3.000056e+00
      vertex   2.585592e+00 -1.521624e+00 3.150892e+00
      vertex   2.579394e+00 -1.532359e+00 3.001398e+00
    endloop
  endfacet
  facet normal 8.660254e-01 -5.000000e-01 4.168673e-15
    outer loop
      vertex   2.579394e+00 -1.532359e+00 3.001398e+00
      vertex   2.585592e+00 -1.521624e+00 3.150892e+00
      vertex   2.564518e+00 -1.558125e+00 3.004525e+00
    endloop
  endfacet
  facet normal 8.660254e-01 -5.000000e-01 -3.456346e-15
    outer loop
      vertex   2.564518e+00 -1.558125e+00 3.004525e+00
      vertex   2.585592e+00 -1.521624e+00 3.150892e+00
      vertex   2.573171e+00 -1.543137e+00 3.153562e+00
    endloop
  endfacet
  facet normal 8.660254e-01 -5.000000e-01 -3.343464e-15
    outer loop
      vertex   2.564518e+00 -1.558125e+00 3.004525e+00
      vertex   2.573171e+00 -1.543137e+00 3.153562e+00
      vertex   2.549762e+00 -1.583682e+00 3.009426e+00
    endloop
  endfacet
  facet normal 8.660254e-01 -5.000000e-01 -1.589455e-16
    outer loop
      vertex   2.549762e+00 -1.583682e+00 3.009426e+00
      vertex   2.573171e+00 -1.543137e+00 3.153562e+00
      vertex   2.560877e+00 -1.564430e+00 3.157999e+00
    endloop
  endfacet
  facet normal 8.660254e-01 -5.000000e-01 -5.201844e-16
    outer loop
      vertex   2.549762e+00 -1.583682e+00 3.009426e+00
      vertex   2.560877e+00 -1.564430e+00 3.157999e+00
      vertex   2.535180e+00 -1.608940e+00 3.016083e+00
    endloop
  endfacet
  facet normal 8.660254e-01 -5.000000e-01 -1.675494e-15
    outer loop
      vertex   2.535180e+00 -1.608940e+00 3.016083e+00
      vertex   2.560877e+00 -1.564430e+00 3.157999e+00
      vertex   2.548773e+00 -1.585396e+00 3.164177e+00
    endloop
  endfacet
  facet normal 8.660254e-01 -5.000000e-01 -2.298764e-16
    outer loop
      vertex   2.535180e+00 -1.608940e+00 3.016083e+00
      vertex   2.548773e+00 -1.585396e+00 3.164177e+00
      vertex   2.520822e+00 -1.633808e+00 3.024472e+00
    endloop
  endfacet
  facet normal 8.660254e-01 -5.000000e-01 3.177828e-16
    outer loop
      vertex   2.520822e+00 -1.633808e+00 3.024472e+00
      vertex   2.548773e+00 -1.585396e+00 3.164177e+00
      vertex   2.536920e+00 -1.605926e+00 3.172068e+00
    endloop
  endfacet
  facet normal 8.660254e-01 -5.000000e-01 -8.467496e-16
    outer loop
      vertex   2.520822e+00 -1.633808e+00 3.024472e+00
      vertex   2.536920e+00 -1.605926e+00 3.172068e+00
      vertex   2.506741e+00 -1.658197e+00 3.034563e+00
    endloop
  endfacet
  facet normal 8.660254e-01 -5.000000e-01 4.798016e-15
    outer loop
      vertex   2.506741e+00 -1.658197e+00 3.034563e+00
      vertex   2.536920e+00 -1.605926e+00 3.172068e+00
      vertex   2.525379e+00 -1.625916e+00 3.181629e+00
    endloop
  endfacet
  facet normal 8.660254e-01 -5.000000e-01 5.235107e-15
    outer loop
      vertex   2.506741e+00 -1.658197e+00 3.034563e+00
      vertex   2.525379e+00 -1.625916e+00 3.181629e+00
      vertex   2.492987e+00 -1.682020e+00 3.046321e+00
    endloop
  endfacet
  facet normal 8.660254e-01 -5.000000e-01 -7.200356e-15
    outer loop
      vertex   2.492987e+00 -1.682020e+00 3.046321e+00
      vertex   2.525379e+00 -1.625916e+00 3.181629e+00
      vertex   2.479609e+00 -1.705191e+00 3.059702e+00
    endloop
  endfacet
  facet normal 8.660254e-01 -5.000000e-01 -8.678704e-15
    outer loop
      vertex   2.479609e+00 -1.705191e+00 3.059702e+00
      vertex   2.525379e+00 -1.625916e+00 3.181629e+00
      vertex   2.514208e+00 -1.645265e+00 3.192812e+00
    endloop
  endfacet
  facet normal 8.660254e-01 -5.000000e-01 2.176340e-15
    outer loop
      vertex   2.479609e+00 -1.705191e+00 3.059702e+00
      vertex   2.514208e+00 -1.645265e+00 3.192812e+00
      vertex   2.466655e+00 -1.727628e+00 3.074660e+00
    endloop
  endfacet
  facet normal 8.660254e-01 -5.000000e-01 1.063612e-14
    outer loop
      vertex   2.466655e+00 -1.727628e+00 3.074660e+00
      vertex   2.514208e+00 -1.645265e+00 3.192812e+00
      vertex   2.503464e+00 -1.663873e+00 3.205561e+00
    endloop
  endfacet
  facet normal 8.660254e-01 -5.000000e-01 2.346753e-15
    outer loop
      vertex   2.466655e+00 -1.727628e+00 3.074660e+00
      vertex   2.503464e+00 -1.663873e+00 3.205561e+00
      vertex   2.454172e+00 -1.749250e+00 3.091140e+00
    endloop
  endfacet
  facet normal 8.660254e-01 -5.000000e-01 -7.048891e-15
    outer loop
      vertex   2.454172e+00 -1.749250e+00 3.091140e+00
      vertex   2.503464e+00 -1.663873e+00 3.205561e+00
      vertex   2.493203e+00 -1.681646e+00 3.219811e+00
    endloop
  endfacet
  facet normal 8.660254e-01 -5.000000e-01 3.629633e-16
    outer loop
      vertex   2.454172e+00 -1.749250e+00 3.091140e+00
      vertex   2.493203e+00 -1.681646e+00 3.219811e+00
      vertex   2.442204e+00 -1.769979e+00 3.109084e+00
    endloop
  endfacet
  facet normal 8.660254e-01 -5.000000e-01 3.697682e-15
    outer loop
      vertex   2.442204e+00 -1.769979e+00 3.109084e+00
      vertex   2.493203e+00 -1.681646e+00 3.219811e+00
      vertex   2.483476e+00 -1.698494e+00 3.235488e+00
    endloop
  endfacet
  facet normal 8.660254e-01 -5.000000e-01 2.879112e-15
    outer loop
      vertex   2.442204e+00 -1.769979e+00 3.109084e+00
      vertex   2.483476e+00 -1.698494e+00 3.235488e+00
      vertex   2.430794e+00 -1.789742e+00 3.128428e+00
    endloop
  endfacet
  facet normal 8.660254e-01 -5.000000e-01 -4.624039e-15
    outer loop
      vertex   2.430794e+00 -1.789742e+00 3.128428e+00
      vertex   2.483476e+00 -1.698494e+00 3.235488e+00
      vertex   2.474333e+00 -1.714330e+00 3.252513e+00
    endloop
  endfacet
  facet normal 8.660254e-01 -5.000000e-01 -9.407318e-15
    outer loop
      vertex   2.430794e+00 -1.789742e+00 3.128428e+00
      vertex   2.474333e+00 -1.714330e+00 3.252513e+00
      vertex   2.419982e+00 -1.808468e+00 3.149101e+00
    endloop
  endfacet
  facet normal 8.660254e-01 -5.000000e-01 2.082616e-15
    outer loop
      vertex   2.419982e+00 -1.808468e+00 3.149101e+00
      vertex   2.474333e+00 -1.714330e+00 3.252513e+00
      vertex   2.465820e+00 -1.729074e+00 3.270799e+00
    endloop
  endfacet
  facet normal 8.660254e-01 -5.000000e-01 6.210386e-15
    outer loop
      vertex   2.419982e+00 -1.808468e+00 3.149101e+00
      vertex   2.465820e+00 -1.729074e+00 3.270799e+00
      vertex   2.409808e+00 -1.826090e+00 3.171031e+00
    endloop
  endfacet
  facet normal 8.660254e-01 -5.000000e-01 -4.642311e-15
    outer loop
      vertex   2.409808e+00 -1.826090e+00 3.171031e+00
      vertex   2.465820e+00 -1.729074e+00 3.270799e+00
      vertex   2.400308e+00 -1.842544e+00 3.194138e+00
    endloop
  endfacet
  facet normal 8.660254e-01 -5.000000e-01 -3.006250e-15
    outer loop
      vertex   2.400308e+00 -1.842544e+00 3.194138e+00
      vertex   2.465820e+00 -1.729074e+00 3.270799e+00
      vertex   2.457981e+00 -1.742651e+00 3.290253e+00
    endloop
  endfacet
  facet normal 8.660254e-01 -5.000000e-01 -3.870688e-16
    outer loop
      vertex   2.400308e+00 -1.842544e+00 3.194138e+00
      vertex   2.457981e+00 -1.742651e+00 3.290253e+00
      vertex   2.391517e+00 -1.857772e+00 3.218340e+00
    endloop
  endfacet
  facet normal 8.660254e-01 -5.000000e-01 1.155615e-15
    outer loop
      vertex   2.391517e+00 -1.857772e+00 3.218340e+00
      vertex   2.457981e+00 -1.742651e+00 3.290253e+00
      vertex   2.450857e+00 -1.754991e+00 3.310776e+00
    endloop
  endfacet
  facet normal 8.660254e-01 -5.000000e-01 6.025141e-15
    outer loop
      vertex   2.391517e+00 -1.857772e+00 3.218340e+00
      vertex   2.450857e+00 -1.754991e+00 3.310776e+00
      vertex   2.383464e+00 -1.871719e+00 3.243550e+00
    endloop
  endfacet
  facet normal 8.660254e-01 -5.000000e-01 -4.853074e-15
    outer loop
      vertex   2.383464e+00 -1.871719e+00 3.243550e+00
      vertex   2.450857e+00 -1.754991e+00 3.310776e+00
      vertex   2.444482e+00 -1.766032e+00 3.332263e+00
    endloop
  endfacet
  facet normal 8.660254e-01 -5.000000e-01 -3.338959e-15
    outer loop
      vertex   2.383464e+00 -1.871719e+00 3.243550e+00
      vertex   2.444482e+00 -1.766032e+00 3.332263e+00
      vertex   2.376180e+00 -1.884336e+00 3.269679e+00
    endloop
  endfacet
  facet normal 8.660254e-01 -5.000000e-01 8.784740e-15
    outer loop
      vertex   2.376180e+00 -1.884336e+00 3.269679e+00
      vertex   2.444482e+00 -1.766032e+00 3.332263e+00
      vertex   2.438891e+00 -1.775718e+00 3.354605e+00
    endloop
  endfacet
  facet normal 8.660254e-01 -5.000000e-01 -3.071597e-15
    outer loop
      vertex   2.376180e+00 -1.884336e+00 3.269679e+00
      vertex   2.438891e+00 -1.775718e+00 3.354605e+00
      vertex   2.369690e+00 -1.895577e+00 3.296632e+00
    endloop
  endfacet
  facet normal 8.660254e-01 -5.000000e-01 2.082231e-15
    outer loop
      vertex   2.369690e+00 -1.895577e+00 3.296632e+00
      vertex   2.438891e+00 -1.775718e+00 3.354605e+00
      vertex   2.434110e+00 -1.783998e+00 3.377688e+00
    endloop
  endfacet
  facet normal 8.660254e-01 -5.000000e-01 1.063424e-15
    outer loop
      vertex   2.369690e+00 -1.895577e+00 3.296632e+00
      vertex   2.434110e+00 -1.783998e+00 3.377688e+00
      vertex   2.364017e+00 -1.905402e+00 3.324313e+00
    endloop
  endfacet
  facet normal 8.660254e-01 -5.000000e-01 -7.035102e-15
    outer loop
      vertex   2.364017e+00 -1.905402e+00 3.324313e+00
      vertex   2.434110e+00 -1.783998e+00 3.377688e+00
      vertex   2.359183e+00 -1.913775e+00 3.352622e+00
    endloop
  endfacet
  facet normal 8.660254e-01 -5.000000e-01 -4.625662e-15
    outer loop
      vertex   2.359183e+00 -1.913775e+00 3.352622e+00
      vertex   2.434110e+00 -1.783998e+00 3.377688e+00
      vertex   2.430165e+00 -1.790831e+00 3.401394e+00
    endloop
  endfacet
  facet normal 8.660254e-01 -5.000000e-01 5.442758e-15
    outer loop
      vertex   2.359183e+00 -1.913775e+00 3.352622e+00
      vertex   2.430165e+00 -1.790831e+00 3.401394e+00
      vertex   2.355204e+00 -1.920668e+00 3.381460e+00
    endloop
  endfacet
  facet normal 8.660254e-01 -5.000000e-01 1.017007e-14
    outer loop
      vertex   2.355204e+00 -1.920668e+00 3.381460e+00
      vertex   2.430165e+00 -1.790831e+00 3.401394e+00
      vertex   2.427076e+00 -1.796182e+00 3.425602e+00
    endloop
  endfacet
  facet normal 8.660254e-01 -5.000000e-01 -1.113058e-15
    outer loop
      vertex   2.355204e+00 -1.920668e+00 3.381460e+00
      vertex   2.427076e+00 -1.796182e+00 3.425602e+00
      vertex   2.352094e+00 -1.926054e+00 3.410722e+00
    endloop
  endfacet
  facet normal 8.660254e-01 -5.000000e-01 -2.310955e-15
    outer loop
      vertex   2.352094e+00 -1.926054e+00 3.410722e+00
      vertex   2.427076e+00 -1.796182e+00 3.425602e+00
      vertex   2.424857e+00 -1.800024e+00 3.450190e+00
    endloop
  endfacet
  facet normal 8.660254e-01 -5.000000e-01 1.113028e-15
    outer loop
      vertex   2.352094e+00 -1.926054e+00 3.410722e+00
      vertex   2.424857e+00 -1.800024e+00 3.450190e+00
      vertex   2.349864e+00 -1.929915e+00 3.440303e+00
    endloop
  endfacet
  facet normal 8.660254e-01 -5.000000e-01 -1.386936e-15
    outer loop
      vertex   2.349864e+00 -1.929915e+00 3.440303e+00
      vertex   2.424857e+00 -1.800024e+00 3.450190e+00
      vertex   2.423522e+00 -1.802337e+00 3.475031e+00
    endloop
  endfacet
  facet normal 8.660254e-01 -5.000000e-01 -1.795962e-15
    outer loop
      vertex   2.349864e+00 -1.929915e+00 3.440303e+00
      vertex   2.423522e+00 -1.802337e+00 3.475031e+00
      vertex   2.348524e+00 -1.932238e+00 3.470098e+00
    endloop
  endfacet
  facet normal 8.660254e-01 -5.000000e-01 -1.064070e-14
    outer loop
      vertex   2.348524e+00 -1.932238e+00 3.470098e+00
      vertex   2.423522e+00 -1.802337e+00 3.475031e+00
      vertex   2.423076e+00 -1.803109e+00 3.500000e+00
    endloop
  endfacet
endsolid
